<svg class="main-svg" xmlns="http://www.w3.org/2000/svg" xmlns:xlink="http://www.w3.org/1999/xlink" width="400" height="300" style="" viewBox="0 0 400 300"><rect x="0" y="0" width="400" height="300" style="fill: rgb(255, 255, 255); fill-opacity: 1;"/><defs id="defs-6d4825"><g class="clips"><clipPath id="clip6d4825xyplot" class="plotclip"><rect width="180" height="160"/></clipPath><clipPath class="axesclip" id="clip6d4825x"><rect x="80" y="0" width="180" height="300"/></clipPath><clipPath class="axesclip" id="clip6d4825y"><rect x="0" y="60" width="400" height="160"/></clipPath><clipPath class="axesclip" id="clip6d4825xy"><rect x="80" y="60" width="180" height="160"/></clipPath></g><g class="gradients"/><g class="patterns"/></defs><g class="bglayer"/><g class="layer-below"><g class="imagelayer"/><g class="shapelayer"/></g><g class="cartesianlayer"><g class="subplot xy"><g class="layer-subplot"><g class="shapelayer"/><g class="imagelayer"/></g><g class="gridlayer"><g class="x"/><g class="y"><path class="ygrid crisp" transform="translate(0,184.95999999999998)" d="M80,0h180" style="stroke: rgb(238, 238, 238); stroke-opacity: 1; stroke-width: 1px;"/><path class="ygrid crisp" transform="translate(0,149.91)" d="M80,0h180" style="stroke: rgb(238, 238, 238); stroke-opacity: 1; stroke-width: 1px;"/><path class="ygrid crisp" transform="translate(0,114.87)" d="M80,0h180" style="stroke: rgb(238, 238, 238); stroke-opacity: 1; stroke-width: 1px;"/><path class="ygrid crisp" transform="translate(0,79.83)" d="M80,0h180" style="stroke: rgb(238, 238, 238); stroke-opacity: 1; stroke-width: 1px;"/></g></g><g class="zerolinelayer"><path class="yzl zl crisp" transform="translate(0,220)" d="M80,0h180" style="stroke: rgb(68, 68, 68); stroke-opacity: 1; stroke-width: 1px;"/></g><path class="xlines-below"/><path class="ylines-below"/><g class="overlines-below"/><g class="xaxislayer-below"/><g class="yaxislayer-below"/><g class="overaxes-below"/><g class="plot" transform="translate(80,60)" clip-path="url(#clip6d4825xyplot)"><g class="barlayer mlayer"><g class="trace bars" style="opacity: 1;"><g class="points"><g class="point"><path d="M2.25,160V159.13H20.25V160Z" style="vector-effect: non-scaling-stroke; opacity: 1; stroke-width: 0px; fill: rgb(220, 176, 242); fill-opacity: 1;"/></g><g class="point"><path d="M2.25,159.13V157.2H20.25V159.13Z" style="vector-effect: non-scaling-stroke; opacity: 1; stroke-width: 0px; fill: rgb(220, 176, 242); fill-opacity: 1;"/></g><g class="point"><path d="M2.25,157.2V153.71H20.25V157.2Z" style="vector-effect: non-scaling-stroke; opacity: 1; stroke-width: 0px; fill: rgb(220, 176, 242); fill-opacity: 1;"/></g><g class="point"><path d="M2.25,153.71V152.95H20.25V153.71Z" style="vector-effect: non-scaling-stroke; opacity: 1; stroke-width: 0px; fill: rgb(220, 176, 242); fill-opacity: 1;"/></g><g class="point"><path d="M2.25,152.95V150.66H20.25V152.95Z" style="vector-effect: non-scaling-stroke; opacity: 1; stroke-width: 0px; fill: rgb(220, 176, 242); fill-opacity: 1;"/></g><g class="point"><path d="M2.25,150.66V149.51H20.25V150.66Z" style="vector-effect: non-scaling-stroke; opacity: 1; stroke-width: 0px; fill: rgb(220, 176, 242); fill-opacity: 1;"/></g><g class="point"><path d="M2.25,149.51V148.97H20.25V149.51Z" style="vector-effect: non-scaling-stroke; opacity: 1; stroke-width: 0px; fill: rgb(220, 176, 242); fill-opacity: 1;"/></g><g class="point"><path d="M2.25,148.97V146.81H20.25V148.97Z" style="vector-effect: non-scaling-stroke; opacity: 1; stroke-width: 0px; fill: rgb(220, 176, 242); fill-opacity: 1;"/></g><g class="point"><path d="M2.25,146.81V146H20.25V146.81Z" style="vector-effect: non-scaling-stroke; opacity: 1; stroke-width: 0px; fill: rgb(220, 176, 242); fill-opacity: 1;"/></g><g class="point"><path d="M2.25,146V144.29H20.25V146Z" style="vector-effect: non-scaling-stroke; opacity: 1; stroke-width: 0px; fill: rgb(220, 176, 242); fill-opacity: 1;"/></g><g class="point"><path d="M2.25,144.29V143.48H20.25V144.29Z" style="vector-effect: non-scaling-stroke; opacity: 1; stroke-width: 0px; fill: rgb(220, 176, 242); fill-opacity: 1;"/></g><g class="point"><path d="M2.25,143.48V137.35H20.25V143.48Z" style="vector-effect: non-scaling-stroke; opacity: 1; stroke-width: 0px; fill: rgb(220, 176, 242); fill-opacity: 1;"/></g><g class="point"><path d="M2.25,137.35V136.9H20.25V137.35Z" style="vector-effect: non-scaling-stroke; opacity: 1; stroke-width: 0px; fill: rgb(220, 176, 242); fill-opacity: 1;"/></g><g class="point"><path d="M2.25,136.9V132.38H20.25V136.9Z" style="vector-effect: non-scaling-stroke; opacity: 1; stroke-width: 0px; fill: rgb(220, 176, 242); fill-opacity: 1;"/></g><g class="point"><path d="M2.25,132.38V130.98H20.25V132.38Z" style="vector-effect: non-scaling-stroke; opacity: 1; stroke-width: 0px; fill: rgb(220, 176, 242); fill-opacity: 1;"/></g><g class="point"><path d="M2.25,130.98V128.76H20.25V130.98Z" style="vector-effect: non-scaling-stroke; opacity: 1; stroke-width: 0px; fill: rgb(220, 176, 242); fill-opacity: 1;"/></g><g class="point"><path d="M24.75,160V159.13H42.75V160Z" style="vector-effect: non-scaling-stroke; opacity: 1; stroke-width: 0px; fill: rgb(220, 176, 242); fill-opacity: 1;"/></g><g class="point"><path d="M24.75,159.13V157.2H42.75V159.13Z" style="vector-effect: non-scaling-stroke; opacity: 1; stroke-width: 0px; fill: rgb(220, 176, 242); fill-opacity: 1;"/></g><g class="point"><path d="M24.75,157.2V153.71H42.75V157.2Z" style="vector-effect: non-scaling-stroke; opacity: 1; stroke-width: 0px; fill: rgb(220, 176, 242); fill-opacity: 1;"/></g><g class="point"><path d="M24.75,153.71V152.95H42.75V153.71Z" style="vector-effect: non-scaling-stroke; opacity: 1; stroke-width: 0px; fill: rgb(220, 176, 242); fill-opacity: 1;"/></g><g class="point"><path d="M24.75,152.95V150.66H42.75V152.95Z" style="vector-effect: non-scaling-stroke; opacity: 1; stroke-width: 0px; fill: rgb(220, 176, 242); fill-opacity: 1;"/></g><g class="point"><path d="M24.75,150.66V149.51H42.75V150.66Z" style="vector-effect: non-scaling-stroke; opacity: 1; stroke-width: 0px; fill: rgb(220, 176, 242); fill-opacity: 1;"/></g><g class="point"><path d="M24.75,149.51V148.97H42.75V149.51Z" style="vector-effect: non-scaling-stroke; opacity: 1; stroke-width: 0px; fill: rgb(220, 176, 242); fill-opacity: 1;"/></g><g class="point"><path d="M24.75,148.97V146.81H42.75V148.97Z" style="vector-effect: non-scaling-stroke; opacity: 1; stroke-width: 0px; fill: rgb(220, 176, 242); fill-opacity: 1;"/></g><g class="point"><path d="M24.75,146.81V146H42.75V146.81Z" style="vector-effect: non-scaling-stroke; opacity: 1; stroke-width: 0px; fill: rgb(220, 176, 242); fill-opacity: 1;"/></g><g class="point"><path d="M24.75,146V144.29H42.75V146Z" style="vector-effect: non-scaling-stroke; opacity: 1; stroke-width: 0px; fill: rgb(220, 176, 242); fill-opacity: 1;"/></g><g class="point"><path d="M24.75,144.29V143.48H42.75V144.29Z" style="vector-effect: non-scaling-stroke; opacity: 1; stroke-width: 0px; fill: rgb(220, 176, 242); fill-opacity: 1;"/></g><g class="point"><path d="M24.75,143.48V137.35H42.75V143.48Z" style="vector-effect: non-scaling-stroke; opacity: 1; stroke-width: 0px; fill: rgb(220, 176, 242); fill-opacity: 1;"/></g><g class="point"><path d="M24.75,137.35V136.9H42.75V137.35Z" style="vector-effect: non-scaling-stroke; opacity: 1; stroke-width: 0px; fill: rgb(220, 176, 242); fill-opacity: 1;"/></g><g class="point"><path d="M24.75,136.9V132.38H42.75V136.9Z" style="vector-effect: non-scaling-stroke; opacity: 1; stroke-width: 0px; fill: rgb(220, 176, 242); fill-opacity: 1;"/></g><g class="point"><path d="M24.75,132.38V130.98H42.75V132.38Z" style="vector-effect: non-scaling-stroke; opacity: 1; stroke-width: 0px; fill: rgb(220, 176, 242); fill-opacity: 1;"/></g><g class="point"><path d="M24.75,130.98V128.76H42.75V130.98Z" style="vector-effect: non-scaling-stroke; opacity: 1; stroke-width: 0px; fill: rgb(220, 176, 242); fill-opacity: 1;"/></g><g class="point"><path d="M47.25,160V159.13H65.25V160Z" style="vector-effect: non-scaling-stroke; opacity: 1; stroke-width: 0px; fill: rgb(220, 176, 242); fill-opacity: 1;"/></g><g class="point"><path d="M47.25,159.13V157.2H65.25V159.13Z" style="vector-effect: non-scaling-stroke; opacity: 1; stroke-width: 0px; fill: rgb(220, 176, 242); fill-opacity: 1;"/></g><g class="point"><path d="M47.25,157.2V153.71H65.25V157.2Z" style="vector-effect: non-scaling-stroke; opacity: 1; stroke-width: 0px; fill: rgb(220, 176, 242); fill-opacity: 1;"/></g><g class="point"><path d="M47.25,153.71V151.07H65.25V153.71Z" style="vector-effect: non-scaling-stroke; opacity: 1; stroke-width: 0px; fill: rgb(220, 176, 242); fill-opacity: 1;"/></g><g class="point"><path d="M47.25,151.07V150.31H65.25V151.07Z" style="vector-effect: non-scaling-stroke; opacity: 1; stroke-width: 0px; fill: rgb(220, 176, 242); fill-opacity: 1;"/></g><g class="point"><path d="M47.25,150.31V148.02H65.25V150.31Z" style="vector-effect: non-scaling-stroke; opacity: 1; stroke-width: 0px; fill: rgb(220, 176, 242); fill-opacity: 1;"/></g><g class="point"><path d="M47.25,148.02V146.87H65.25V148.02Z" style="vector-effect: non-scaling-stroke; opacity: 1; stroke-width: 0px; fill: rgb(220, 176, 242); fill-opacity: 1;"/></g><g class="point"><path d="M47.25,146.87V146.33H65.25V146.87Z" style="vector-effect: non-scaling-stroke; opacity: 1; stroke-width: 0px; fill: rgb(220, 176, 242); fill-opacity: 1;"/></g><g class="point"><path d="M47.25,146.33V144.18H65.25V146.33Z" style="vector-effect: non-scaling-stroke; opacity: 1; stroke-width: 0px; fill: rgb(220, 176, 242); fill-opacity: 1;"/></g><g class="point"><path d="M47.25,144.18V143.36H65.25V144.18Z" style="vector-effect: non-scaling-stroke; opacity: 1; stroke-width: 0px; fill: rgb(220, 176, 242); fill-opacity: 1;"/></g><g class="point"><path d="M47.25,143.36V142.31H65.25V143.36Z" style="vector-effect: non-scaling-stroke; opacity: 1; stroke-width: 0px; fill: rgb(220, 176, 242); fill-opacity: 1;"/></g><g class="point"><path d="M47.25,142.31V140.6H65.25V142.31Z" style="vector-effect: non-scaling-stroke; opacity: 1; stroke-width: 0px; fill: rgb(220, 176, 242); fill-opacity: 1;"/></g><g class="point"><path d="M47.25,140.6V139.8H65.25V140.6Z" style="vector-effect: non-scaling-stroke; opacity: 1; stroke-width: 0px; fill: rgb(220, 176, 242); fill-opacity: 1;"/></g><g class="point"><path d="M47.25,139.8V133.66H65.25V139.8Z" style="vector-effect: non-scaling-stroke; opacity: 1; stroke-width: 0px; fill: rgb(220, 176, 242); fill-opacity: 1;"/></g><g class="point"><path d="M47.25,133.66V133.21H65.25V133.66Z" style="vector-effect: non-scaling-stroke; opacity: 1; stroke-width: 0px; fill: rgb(220, 176, 242); fill-opacity: 1;"/></g><g class="point"><path d="M47.25,133.21V128.69H65.25V133.21Z" style="vector-effect: non-scaling-stroke; opacity: 1; stroke-width: 0px; fill: rgb(220, 176, 242); fill-opacity: 1;"/></g><g class="point"><path d="M47.25,128.69V127.29H65.25V128.69Z" style="vector-effect: non-scaling-stroke; opacity: 1; stroke-width: 0px; fill: rgb(220, 176, 242); fill-opacity: 1;"/></g><g class="point"><path d="M47.25,127.29V125.07H65.25V127.29Z" style="vector-effect: non-scaling-stroke; opacity: 1; stroke-width: 0px; fill: rgb(220, 176, 242); fill-opacity: 1;"/></g><g class="point"><path d="M69.75,160V159.13H87.75V160Z" style="vector-effect: non-scaling-stroke; opacity: 1; stroke-width: 0px; fill: rgb(220, 176, 242); fill-opacity: 1;"/></g><g class="point"><path d="M69.75,159.13V157.2H87.75V159.13Z" style="vector-effect: non-scaling-stroke; opacity: 1; stroke-width: 0px; fill: rgb(220, 176, 242); fill-opacity: 1;"/></g><g class="point"><path d="M69.75,157.2V153.71H87.75V157.2Z" style="vector-effect: non-scaling-stroke; opacity: 1; stroke-width: 0px; fill: rgb(220, 176, 242); fill-opacity: 1;"/></g><g class="point"><path d="M69.75,153.71V153.42H87.75V153.71Z" style="vector-effect: non-scaling-stroke; opacity: 1; stroke-width: 0px; fill: rgb(220, 176, 242); fill-opacity: 1;"/></g><g class="point"><path d="M69.75,153.42V152.66H87.75V153.42Z" style="vector-effect: non-scaling-stroke; opacity: 1; stroke-width: 0px; fill: rgb(220, 176, 242); fill-opacity: 1;"/></g><g class="point"><path d="M69.75,152.66V150.37H87.75V152.66Z" style="vector-effect: non-scaling-stroke; opacity: 1; stroke-width: 0px; fill: rgb(220, 176, 242); fill-opacity: 1;"/></g><g class="point"><path d="M69.75,150.37V149.22H87.75V150.37Z" style="vector-effect: non-scaling-stroke; opacity: 1; stroke-width: 0px; fill: rgb(220, 176, 242); fill-opacity: 1;"/></g><g class="point"><path d="M69.75,149.22V148.68H87.75V149.22Z" style="vector-effect: non-scaling-stroke; opacity: 1; stroke-width: 0px; fill: rgb(220, 176, 242); fill-opacity: 1;"/></g><g class="point"><path d="M69.75,148.68V146.52H87.75V148.68Z" style="vector-effect: non-scaling-stroke; opacity: 1; stroke-width: 0px; fill: rgb(220, 176, 242); fill-opacity: 1;"/></g><g class="point"><path d="M69.75,146.52V145.71H87.75V146.52Z" style="vector-effect: non-scaling-stroke; opacity: 1; stroke-width: 0px; fill: rgb(220, 176, 242); fill-opacity: 1;"/></g><g class="point"><path d="M69.75,145.71V144.66H87.75V145.71Z" style="vector-effect: non-scaling-stroke; opacity: 1; stroke-width: 0px; fill: rgb(220, 176, 242); fill-opacity: 1;"/></g><g class="point"><path d="M69.75,144.66V142.95H87.75V144.66Z" style="vector-effect: non-scaling-stroke; opacity: 1; stroke-width: 0px; fill: rgb(220, 176, 242); fill-opacity: 1;"/></g><g class="point"><path d="M69.75,142.95V136.82H87.75V142.95Z" style="vector-effect: non-scaling-stroke; opacity: 1; stroke-width: 0px; fill: rgb(220, 176, 242); fill-opacity: 1;"/></g><g class="point"><path d="M69.75,136.82V136.37H87.75V136.82Z" style="vector-effect: non-scaling-stroke; opacity: 1; stroke-width: 0px; fill: rgb(220, 176, 242); fill-opacity: 1;"/></g><g class="point"><path d="M69.75,136.37V131.84H87.75V136.37Z" style="vector-effect: non-scaling-stroke; opacity: 1; stroke-width: 0px; fill: rgb(220, 176, 242); fill-opacity: 1;"/></g><g class="point"><path d="M69.75,131.84V130.45H87.75V131.84Z" style="vector-effect: non-scaling-stroke; opacity: 1; stroke-width: 0px; fill: rgb(220, 176, 242); fill-opacity: 1;"/></g><g class="point"><path d="M69.75,130.45V128.22H87.75V130.45Z" style="vector-effect: non-scaling-stroke; opacity: 1; stroke-width: 0px; fill: rgb(220, 176, 242); fill-opacity: 1;"/></g><g class="point"><path d="M92.25,160V158.98H110.25V160Z" style="vector-effect: non-scaling-stroke; opacity: 1; stroke-width: 0px; fill: rgb(220, 176, 242); fill-opacity: 1;"/></g><g class="point"><path d="M92.25,158.98V156.74H110.25V158.98Z" style="vector-effect: non-scaling-stroke; opacity: 1; stroke-width: 0px; fill: rgb(220, 176, 242); fill-opacity: 1;"/></g><g class="point"><path d="M92.25,156.74V152.7H110.25V156.74Z" style="vector-effect: non-scaling-stroke; opacity: 1; stroke-width: 0px; fill: rgb(220, 176, 242); fill-opacity: 1;"/></g><g class="point"><path d="M92.25,152.7V151.29H110.25V152.7Z" style="vector-effect: non-scaling-stroke; opacity: 1; stroke-width: 0px; fill: rgb(220, 176, 242); fill-opacity: 1;"/></g><g class="point"><path d="M92.25,151.29V148.62H110.25V151.29Z" style="vector-effect: non-scaling-stroke; opacity: 1; stroke-width: 0px; fill: rgb(220, 176, 242); fill-opacity: 1;"/></g><g class="point"><path d="M92.25,148.62V147.3H110.25V148.62Z" style="vector-effect: non-scaling-stroke; opacity: 1; stroke-width: 0px; fill: rgb(220, 176, 242); fill-opacity: 1;"/></g><g class="point"><path d="M92.25,147.3V146.7H110.25V147.3Z" style="vector-effect: non-scaling-stroke; opacity: 1; stroke-width: 0px; fill: rgb(220, 176, 242); fill-opacity: 1;"/></g><g class="point"><path d="M92.25,146.7V144.21H110.25V146.7Z" style="vector-effect: non-scaling-stroke; opacity: 1; stroke-width: 0px; fill: rgb(220, 176, 242); fill-opacity: 1;"/></g><g class="point"><path d="M92.25,144.21V143.25H110.25V144.21Z" style="vector-effect: non-scaling-stroke; opacity: 1; stroke-width: 0px; fill: rgb(220, 176, 242); fill-opacity: 1;"/></g><g class="point"><path d="M92.25,143.25V141.27H110.25V143.25Z" style="vector-effect: non-scaling-stroke; opacity: 1; stroke-width: 0px; fill: rgb(220, 176, 242); fill-opacity: 1;"/></g><g class="point"><path d="M92.25,141.27V141.09H110.25V141.27Z" style="vector-effect: non-scaling-stroke; opacity: 1; stroke-width: 0px; fill: rgb(220, 176, 242); fill-opacity: 1;"/></g><g class="point"><path d="M92.25,141.09V133.98H110.25V141.09Z" style="vector-effect: non-scaling-stroke; opacity: 1; stroke-width: 0px; fill: rgb(220, 176, 242); fill-opacity: 1;"/></g><g class="point"><path d="M92.25,133.98V133.44H110.25V133.98Z" style="vector-effect: non-scaling-stroke; opacity: 1; stroke-width: 0px; fill: rgb(220, 176, 242); fill-opacity: 1;"/></g><g class="point"><path d="M92.25,133.44V128.21H110.25V133.44Z" style="vector-effect: non-scaling-stroke; opacity: 1; stroke-width: 0px; fill: rgb(220, 176, 242); fill-opacity: 1;"/></g><g class="point"><path d="M92.25,128.21V126.6H110.25V128.21Z" style="vector-effect: non-scaling-stroke; opacity: 1; stroke-width: 0px; fill: rgb(220, 176, 242); fill-opacity: 1;"/></g><g class="point"><path d="M92.25,126.6V124.02H110.25V126.6Z" style="vector-effect: non-scaling-stroke; opacity: 1; stroke-width: 0px; fill: rgb(220, 176, 242); fill-opacity: 1;"/></g><g class="point"><path d="M114.75,160V158.98H132.75V160Z" style="vector-effect: non-scaling-stroke; opacity: 1; stroke-width: 0px; fill: rgb(220, 176, 242); fill-opacity: 1;"/></g><g class="point"><path d="M114.75,158.98V156.74H132.75V158.98Z" style="vector-effect: non-scaling-stroke; opacity: 1; stroke-width: 0px; fill: rgb(220, 176, 242); fill-opacity: 1;"/></g><g class="point"><path d="M114.75,156.74V152.7H132.75V156.74Z" style="vector-effect: non-scaling-stroke; opacity: 1; stroke-width: 0px; fill: rgb(220, 176, 242); fill-opacity: 1;"/></g><g class="point"><path d="M114.75,152.7V151.29H132.75V152.7Z" style="vector-effect: non-scaling-stroke; opacity: 1; stroke-width: 0px; fill: rgb(220, 176, 242); fill-opacity: 1;"/></g><g class="point"><path d="M114.75,151.29V148.62H132.75V151.29Z" style="vector-effect: non-scaling-stroke; opacity: 1; stroke-width: 0px; fill: rgb(220, 176, 242); fill-opacity: 1;"/></g><g class="point"><path d="M114.75,148.62V147.3H132.75V148.62Z" style="vector-effect: non-scaling-stroke; opacity: 1; stroke-width: 0px; fill: rgb(220, 176, 242); fill-opacity: 1;"/></g><g class="point"><path d="M114.75,147.3V146.7H132.75V147.3Z" style="vector-effect: non-scaling-stroke; opacity: 1; stroke-width: 0px; fill: rgb(220, 176, 242); fill-opacity: 1;"/></g><g class="point"><path d="M114.75,146.7V144.21H132.75V146.7Z" style="vector-effect: non-scaling-stroke; opacity: 1; stroke-width: 0px; fill: rgb(220, 176, 242); fill-opacity: 1;"/></g><g class="point"><path d="M114.75,144.21V143.25H132.75V144.21Z" style="vector-effect: non-scaling-stroke; opacity: 1; stroke-width: 0px; fill: rgb(220, 176, 242); fill-opacity: 1;"/></g><g class="point"><path d="M114.75,143.25V141.27H132.75V143.25Z" style="vector-effect: non-scaling-stroke; opacity: 1; stroke-width: 0px; fill: rgb(220, 176, 242); fill-opacity: 1;"/></g><g class="point"><path d="M114.75,141.27V141.09H132.75V141.27Z" style="vector-effect: non-scaling-stroke; opacity: 1; stroke-width: 0px; fill: rgb(220, 176, 242); fill-opacity: 1;"/></g><g class="point"><path d="M114.75,141.09V133.98H132.75V141.09Z" style="vector-effect: non-scaling-stroke; opacity: 1; stroke-width: 0px; fill: rgb(220, 176, 242); fill-opacity: 1;"/></g><g class="point"><path d="M114.75,133.98V133.44H132.75V133.98Z" style="vector-effect: non-scaling-stroke; opacity: 1; stroke-width: 0px; fill: rgb(220, 176, 242); fill-opacity: 1;"/></g><g class="point"><path d="M114.75,133.44V128.21H132.75V133.44Z" style="vector-effect: non-scaling-stroke; opacity: 1; stroke-width: 0px; fill: rgb(220, 176, 242); fill-opacity: 1;"/></g><g class="point"><path d="M114.75,128.21V126.6H132.75V128.21Z" style="vector-effect: non-scaling-stroke; opacity: 1; stroke-width: 0px; fill: rgb(220, 176, 242); fill-opacity: 1;"/></g><g class="point"><path d="M114.75,126.6V124.02H132.75V126.6Z" style="vector-effect: non-scaling-stroke; opacity: 1; stroke-width: 0px; fill: rgb(220, 176, 242); fill-opacity: 1;"/></g><g class="point"><path d="M137.25,160V158.98H155.25V160Z" style="vector-effect: non-scaling-stroke; opacity: 1; stroke-width: 0px; fill: rgb(220, 176, 242); fill-opacity: 1;"/></g><g class="point"><path d="M137.25,158.98V156.74H155.25V158.98Z" style="vector-effect: non-scaling-stroke; opacity: 1; stroke-width: 0px; fill: rgb(220, 176, 242); fill-opacity: 1;"/></g><g class="point"><path d="M137.25,156.74V152.7H155.25V156.74Z" style="vector-effect: non-scaling-stroke; opacity: 1; stroke-width: 0px; fill: rgb(220, 176, 242); fill-opacity: 1;"/></g><g class="point"><path d="M137.25,152.7V149.63H155.25V152.7Z" style="vector-effect: non-scaling-stroke; opacity: 1; stroke-width: 0px; fill: rgb(220, 176, 242); fill-opacity: 1;"/></g><g class="point"><path d="M137.25,149.63V148.22H155.25V149.63Z" style="vector-effect: non-scaling-stroke; opacity: 1; stroke-width: 0px; fill: rgb(220, 176, 242); fill-opacity: 1;"/></g><g class="point"><path d="M137.25,148.22V145.55H155.25V148.22Z" style="vector-effect: non-scaling-stroke; opacity: 1; stroke-width: 0px; fill: rgb(220, 176, 242); fill-opacity: 1;"/></g><g class="point"><path d="M137.25,145.55V144.23H155.25V145.55Z" style="vector-effect: non-scaling-stroke; opacity: 1; stroke-width: 0px; fill: rgb(220, 176, 242); fill-opacity: 1;"/></g><g class="point"><path d="M137.25,144.23V143.63H155.25V144.23Z" style="vector-effect: non-scaling-stroke; opacity: 1; stroke-width: 0px; fill: rgb(220, 176, 242); fill-opacity: 1;"/></g><g class="point"><path d="M137.25,143.63V141.14H155.25V143.63Z" style="vector-effect: non-scaling-stroke; opacity: 1; stroke-width: 0px; fill: rgb(220, 176, 242); fill-opacity: 1;"/></g><g class="point"><path d="M137.25,141.14V140.18H155.25V141.14Z" style="vector-effect: non-scaling-stroke; opacity: 1; stroke-width: 0px; fill: rgb(220, 176, 242); fill-opacity: 1;"/></g><g class="point"><path d="M137.25,140.18V138.95H155.25V140.18Z" style="vector-effect: non-scaling-stroke; opacity: 1; stroke-width: 0px; fill: rgb(220, 176, 242); fill-opacity: 1;"/></g><g class="point"><path d="M137.25,138.95V136.97H155.25V138.95Z" style="vector-effect: non-scaling-stroke; opacity: 1; stroke-width: 0px; fill: rgb(220, 176, 242); fill-opacity: 1;"/></g><g class="point"><path d="M137.25,136.97V136.79H155.25V136.97Z" style="vector-effect: non-scaling-stroke; opacity: 1; stroke-width: 0px; fill: rgb(220, 176, 242); fill-opacity: 1;"/></g><g class="point"><path d="M137.25,136.79V129.68H155.25V136.79Z" style="vector-effect: non-scaling-stroke; opacity: 1; stroke-width: 0px; fill: rgb(220, 176, 242); fill-opacity: 1;"/></g><g class="point"><path d="M137.25,129.68V129.14H155.25V129.68Z" style="vector-effect: non-scaling-stroke; opacity: 1; stroke-width: 0px; fill: rgb(220, 176, 242); fill-opacity: 1;"/></g><g class="point"><path d="M137.25,129.14V123.91H155.25V129.14Z" style="vector-effect: non-scaling-stroke; opacity: 1; stroke-width: 0px; fill: rgb(220, 176, 242); fill-opacity: 1;"/></g><g class="point"><path d="M137.25,123.91V122.3H155.25V123.91Z" style="vector-effect: non-scaling-stroke; opacity: 1; stroke-width: 0px; fill: rgb(220, 176, 242); fill-opacity: 1;"/></g><g class="point"><path d="M137.25,122.3V119.72H155.25V122.3Z" style="vector-effect: non-scaling-stroke; opacity: 1; stroke-width: 0px; fill: rgb(220, 176, 242); fill-opacity: 1;"/></g><g class="point"><path d="M159.75,160V158.98H177.75V160Z" style="vector-effect: non-scaling-stroke; opacity: 1; stroke-width: 0px; fill: rgb(220, 176, 242); fill-opacity: 1;"/></g><g class="point"><path d="M159.75,158.98V156.74H177.75V158.98Z" style="vector-effect: non-scaling-stroke; opacity: 1; stroke-width: 0px; fill: rgb(220, 176, 242); fill-opacity: 1;"/></g><g class="point"><path d="M159.75,156.74V152.7H177.75V156.74Z" style="vector-effect: non-scaling-stroke; opacity: 1; stroke-width: 0px; fill: rgb(220, 176, 242); fill-opacity: 1;"/></g><g class="point"><path d="M159.75,152.7V152.41H177.75V152.7Z" style="vector-effect: non-scaling-stroke; opacity: 1; stroke-width: 0px; fill: rgb(220, 176, 242); fill-opacity: 1;"/></g><g class="point"><path d="M159.75,152.41V151H177.75V152.41Z" style="vector-effect: non-scaling-stroke; opacity: 1; stroke-width: 0px; fill: rgb(220, 176, 242); fill-opacity: 1;"/></g><g class="point"><path d="M159.75,151V148.33H177.75V151Z" style="vector-effect: non-scaling-stroke; opacity: 1; stroke-width: 0px; fill: rgb(220, 176, 242); fill-opacity: 1;"/></g><g class="point"><path d="M159.75,148.33V147.01H177.75V148.33Z" style="vector-effect: non-scaling-stroke; opacity: 1; stroke-width: 0px; fill: rgb(220, 176, 242); fill-opacity: 1;"/></g><g class="point"><path d="M159.75,147.01V146.41H177.75V147.01Z" style="vector-effect: non-scaling-stroke; opacity: 1; stroke-width: 0px; fill: rgb(220, 176, 242); fill-opacity: 1;"/></g><g class="point"><path d="M159.75,146.41V143.92H177.75V146.41Z" style="vector-effect: non-scaling-stroke; opacity: 1; stroke-width: 0px; fill: rgb(220, 176, 242); fill-opacity: 1;"/></g><g class="point"><path d="M159.75,143.92V142.96H177.75V143.92Z" style="vector-effect: non-scaling-stroke; opacity: 1; stroke-width: 0px; fill: rgb(220, 176, 242); fill-opacity: 1;"/></g><g class="point"><path d="M159.75,142.96V141.73H177.75V142.96Z" style="vector-effect: non-scaling-stroke; opacity: 1; stroke-width: 0px; fill: rgb(220, 176, 242); fill-opacity: 1;"/></g><g class="point"><path d="M159.75,141.73V139.75H177.75V141.73Z" style="vector-effect: non-scaling-stroke; opacity: 1; stroke-width: 0px; fill: rgb(220, 176, 242); fill-opacity: 1;"/></g><g class="point"><path d="M159.75,139.75V139.57H177.75V139.75Z" style="vector-effect: non-scaling-stroke; opacity: 1; stroke-width: 0px; fill: rgb(220, 176, 242); fill-opacity: 1;"/></g><g class="point"><path d="M159.75,139.57V132.45H177.75V139.57Z" style="vector-effect: non-scaling-stroke; opacity: 1; stroke-width: 0px; fill: rgb(220, 176, 242); fill-opacity: 1;"/></g><g class="point"><path d="M159.75,132.45V131.92H177.75V132.45Z" style="vector-effect: non-scaling-stroke; opacity: 1; stroke-width: 0px; fill: rgb(220, 176, 242); fill-opacity: 1;"/></g><g class="point"><path d="M159.75,131.92V126.69H177.75V131.92Z" style="vector-effect: non-scaling-stroke; opacity: 1; stroke-width: 0px; fill: rgb(220, 176, 242); fill-opacity: 1;"/></g><g class="point"><path d="M159.75,126.69V125.08H177.75V126.69Z" style="vector-effect: non-scaling-stroke; opacity: 1; stroke-width: 0px; fill: rgb(220, 176, 242); fill-opacity: 1;"/></g><g class="point"><path d="M159.75,125.08V122.49H177.75V125.08Z" style="vector-effect: non-scaling-stroke; opacity: 1; stroke-width: 0px; fill: rgb(220, 176, 242); fill-opacity: 1;"/></g></g></g><g class="trace bars" style="opacity: 1;"><g class="points"><g class="point"><path d="M2.25,128.76V128.62H20.25V128.76Z" style="vector-effect: non-scaling-stroke; opacity: 1; stroke-width: 0px; fill: rgb(248, 156, 116); fill-opacity: 1;"/></g><g class="point"><path d="M2.25,128.62V128.55H20.25V128.62Z" style="vector-effect: non-scaling-stroke; opacity: 1; stroke-width: 0px; fill: rgb(248, 156, 116); fill-opacity: 1;"/></g><g class="point"><path d="M2.25,128.55V126.87H20.25V128.55Z" style="vector-effect: non-scaling-stroke; opacity: 1; stroke-width: 0px; fill: rgb(248, 156, 116); fill-opacity: 1;"/></g><g class="point"><path d="M2.25,126.87V126.48H20.25V126.87Z" style="vector-effect: non-scaling-stroke; opacity: 1; stroke-width: 0px; fill: rgb(248, 156, 116); fill-opacity: 1;"/></g><g class="point"><path d="M24.75,128.76V128.62H42.75V128.76Z" style="vector-effect: non-scaling-stroke; opacity: 1; stroke-width: 0px; fill: rgb(248, 156, 116); fill-opacity: 1;"/></g><g class="point"><path d="M24.75,128.62V128.23H42.75V128.62Z" style="vector-effect: non-scaling-stroke; opacity: 1; stroke-width: 0px; fill: rgb(248, 156, 116); fill-opacity: 1;"/></g><g class="point"><path d="M24.75,128.23V127.98H42.75V128.23Z" style="vector-effect: non-scaling-stroke; opacity: 1; stroke-width: 0px; fill: rgb(248, 156, 116); fill-opacity: 1;"/></g><g class="point"><path d="M24.75,127.98V127H42.75V127.98Z" style="vector-effect: non-scaling-stroke; opacity: 1; stroke-width: 0px; fill: rgb(248, 156, 116); fill-opacity: 1;"/></g><g class="point"><path d="M47.25,125.07V123.59H65.25V125.07Z" style="vector-effect: non-scaling-stroke; opacity: 1; stroke-width: 0px; fill: rgb(248, 156, 116); fill-opacity: 1;"/></g><g class="point"><path d="M47.25,123.59V123.45H65.25V123.59Z" style="vector-effect: non-scaling-stroke; opacity: 1; stroke-width: 0px; fill: rgb(248, 156, 116); fill-opacity: 1;"/></g><g class="point"><path d="M47.25,123.45V121.85H65.25V123.45Z" style="vector-effect: non-scaling-stroke; opacity: 1; stroke-width: 0px; fill: rgb(248, 156, 116); fill-opacity: 1;"/></g><g class="point"><path d="M47.25,121.85V120.22H65.25V121.85Z" style="vector-effect: non-scaling-stroke; opacity: 1; stroke-width: 0px; fill: rgb(248, 156, 116); fill-opacity: 1;"/></g><g class="point"><path d="M47.25,120.22V118.55H65.25V120.22Z" style="vector-effect: non-scaling-stroke; opacity: 1; stroke-width: 0px; fill: rgb(248, 156, 116); fill-opacity: 1;"/></g><g class="point"><path d="M47.25,118.55V116.86H65.25V118.55Z" style="vector-effect: non-scaling-stroke; opacity: 1; stroke-width: 0px; fill: rgb(248, 156, 116); fill-opacity: 1;"/></g><g class="point"><path d="M47.25,116.86V115.05H65.25V116.86Z" style="vector-effect: non-scaling-stroke; opacity: 1; stroke-width: 0px; fill: rgb(248, 156, 116); fill-opacity: 1;"/></g><g class="point"><path d="M47.25,115.05V114.81H65.25V115.05Z" style="vector-effect: non-scaling-stroke; opacity: 1; stroke-width: 0px; fill: rgb(248, 156, 116); fill-opacity: 1;"/></g><g class="point"><path d="M69.75,128.22V126.74H87.75V128.22Z" style="vector-effect: non-scaling-stroke; opacity: 1; stroke-width: 0px; fill: rgb(248, 156, 116); fill-opacity: 1;"/></g><g class="point"><path d="M69.75,126.74V126.6H87.75V126.74Z" style="vector-effect: non-scaling-stroke; opacity: 1; stroke-width: 0px; fill: rgb(248, 156, 116); fill-opacity: 1;"/></g><g class="point"><path d="M69.75,126.6V126.55H87.75V126.6Z" style="vector-effect: non-scaling-stroke; opacity: 1; stroke-width: 0px; fill: rgb(248, 156, 116); fill-opacity: 1;"/></g><g class="point"><path d="M69.75,126.55V124.92H87.75V126.55Z" style="vector-effect: non-scaling-stroke; opacity: 1; stroke-width: 0px; fill: rgb(248, 156, 116); fill-opacity: 1;"/></g><g class="point"><path d="M69.75,124.92V123.25H87.75V124.92Z" style="vector-effect: non-scaling-stroke; opacity: 1; stroke-width: 0px; fill: rgb(248, 156, 116); fill-opacity: 1;"/></g><g class="point"><path d="M69.75,123.25V121.57H87.75V123.25Z" style="vector-effect: non-scaling-stroke; opacity: 1; stroke-width: 0px; fill: rgb(248, 156, 116); fill-opacity: 1;"/></g><g class="point"><path d="M69.75,121.57V120.99H87.75V121.57Z" style="vector-effect: non-scaling-stroke; opacity: 1; stroke-width: 0px; fill: rgb(248, 156, 116); fill-opacity: 1;"/></g><g class="point"><path d="M69.75,120.99V120.75H87.75V120.99Z" style="vector-effect: non-scaling-stroke; opacity: 1; stroke-width: 0px; fill: rgb(248, 156, 116); fill-opacity: 1;"/></g><g class="point"><path d="M92.25,124.02V123.88H110.25V124.02Z" style="vector-effect: non-scaling-stroke; opacity: 1; stroke-width: 0px; fill: rgb(248, 156, 116); fill-opacity: 1;"/></g><g class="point"><path d="M92.25,123.88V123.79H110.25V123.88Z" style="vector-effect: non-scaling-stroke; opacity: 1; stroke-width: 0px; fill: rgb(248, 156, 116); fill-opacity: 1;"/></g><g class="point"><path d="M92.25,123.79V123.08H110.25V123.79Z" style="vector-effect: non-scaling-stroke; opacity: 1; stroke-width: 0px; fill: rgb(248, 156, 116); fill-opacity: 1;"/></g><g class="point"><path d="M92.25,123.08V121.4H110.25V123.08Z" style="vector-effect: non-scaling-stroke; opacity: 1; stroke-width: 0px; fill: rgb(248, 156, 116); fill-opacity: 1;"/></g><g class="point"><path d="M92.25,121.4V120.95H110.25V121.4Z" style="vector-effect: non-scaling-stroke; opacity: 1; stroke-width: 0px; fill: rgb(248, 156, 116); fill-opacity: 1;"/></g><g class="point"><path d="M114.75,124.02V123.88H132.75V124.02Z" style="vector-effect: non-scaling-stroke; opacity: 1; stroke-width: 0px; fill: rgb(248, 156, 116); fill-opacity: 1;"/></g><g class="point"><path d="M114.75,123.88V123.5H132.75V123.88Z" style="vector-effect: non-scaling-stroke; opacity: 1; stroke-width: 0px; fill: rgb(248, 156, 116); fill-opacity: 1;"/></g><g class="point"><path d="M114.75,123.5V121.87H132.75V123.5Z" style="vector-effect: non-scaling-stroke; opacity: 1; stroke-width: 0px; fill: rgb(248, 156, 116); fill-opacity: 1;"/></g><g class="point"><path d="M114.75,121.87V120.72H132.75V121.87Z" style="vector-effect: non-scaling-stroke; opacity: 1; stroke-width: 0px; fill: rgb(248, 156, 116); fill-opacity: 1;"/></g><g class="point"><path d="M114.75,120.72V119.97H132.75V120.72Z" style="vector-effect: non-scaling-stroke; opacity: 1; stroke-width: 0px; fill: rgb(248, 156, 116); fill-opacity: 1;"/></g><g class="point"><path d="M137.25,119.72V118.23H155.25V119.72Z" style="vector-effect: non-scaling-stroke; opacity: 1; stroke-width: 0px; fill: rgb(248, 156, 116); fill-opacity: 1;"/></g><g class="point"><path d="M137.25,118.23V118.1H155.25V118.23Z" style="vector-effect: non-scaling-stroke; opacity: 1; stroke-width: 0px; fill: rgb(248, 156, 116); fill-opacity: 1;"/></g><g class="point"><path d="M137.25,118.1V116.5H155.25V118.1Z" style="vector-effect: non-scaling-stroke; opacity: 1; stroke-width: 0px; fill: rgb(248, 156, 116); fill-opacity: 1;"/></g><g class="point"><path d="M137.25,116.5V114.86H155.25V116.5Z" style="vector-effect: non-scaling-stroke; opacity: 1; stroke-width: 0px; fill: rgb(248, 156, 116); fill-opacity: 1;"/></g><g class="point"><path d="M137.25,114.86V113.2H155.25V114.86Z" style="vector-effect: non-scaling-stroke; opacity: 1; stroke-width: 0px; fill: rgb(248, 156, 116); fill-opacity: 1;"/></g><g class="point"><path d="M137.25,113.2V111.51H155.25V113.2Z" style="vector-effect: non-scaling-stroke; opacity: 1; stroke-width: 0px; fill: rgb(248, 156, 116); fill-opacity: 1;"/></g><g class="point"><path d="M137.25,111.51V110.02H155.25V111.51Z" style="vector-effect: non-scaling-stroke; opacity: 1; stroke-width: 0px; fill: rgb(248, 156, 116); fill-opacity: 1;"/></g><g class="point"><path d="M137.25,110.02V109.78H155.25V110.02Z" style="vector-effect: non-scaling-stroke; opacity: 1; stroke-width: 0px; fill: rgb(248, 156, 116); fill-opacity: 1;"/></g><g class="point"><path d="M159.75,122.49V121.01H177.75V122.49Z" style="vector-effect: non-scaling-stroke; opacity: 1; stroke-width: 0px; fill: rgb(248, 156, 116); fill-opacity: 1;"/></g><g class="point"><path d="M159.75,121.01V120.87H177.75V121.01Z" style="vector-effect: non-scaling-stroke; opacity: 1; stroke-width: 0px; fill: rgb(248, 156, 116); fill-opacity: 1;"/></g><g class="point"><path d="M159.75,120.87V120.85H177.75V120.87Z" style="vector-effect: non-scaling-stroke; opacity: 1; stroke-width: 0px; fill: rgb(248, 156, 116); fill-opacity: 1;"/></g><g class="point"><path d="M159.75,120.85V119.21H177.75V120.85Z" style="vector-effect: non-scaling-stroke; opacity: 1; stroke-width: 0px; fill: rgb(248, 156, 116); fill-opacity: 1;"/></g><g class="point"><path d="M159.75,119.21V117.55H177.75V119.21Z" style="vector-effect: non-scaling-stroke; opacity: 1; stroke-width: 0px; fill: rgb(248, 156, 116); fill-opacity: 1;"/></g><g class="point"><path d="M159.75,117.55V115.86H177.75V117.55Z" style="vector-effect: non-scaling-stroke; opacity: 1; stroke-width: 0px; fill: rgb(248, 156, 116); fill-opacity: 1;"/></g><g class="point"><path d="M159.75,115.86V115.29H177.75V115.86Z" style="vector-effect: non-scaling-stroke; opacity: 1; stroke-width: 0px; fill: rgb(248, 156, 116); fill-opacity: 1;"/></g><g class="point"><path d="M159.75,115.29V115.05H177.75V115.29Z" style="vector-effect: non-scaling-stroke; opacity: 1; stroke-width: 0px; fill: rgb(248, 156, 116); fill-opacity: 1;"/></g></g></g><g class="trace bars" style="opacity: 1;"><g class="points"><g class="point"><path d="M2.25,126.48V44.88H20.25V126.48Z" style="vector-effect: non-scaling-stroke; opacity: 1; stroke-width: 0px; fill: rgb(246, 207, 113); fill-opacity: 1;"/></g><g class="point"><path d="M2.25,44.88V24.71H20.25V44.88Z" style="vector-effect: non-scaling-stroke; opacity: 1; stroke-width: 0px; fill: rgb(246, 207, 113); fill-opacity: 1;"/></g><g class="point"><path d="M24.75,127V45.39H42.75V127Z" style="vector-effect: non-scaling-stroke; opacity: 1; stroke-width: 0px; fill: rgb(246, 207, 113); fill-opacity: 1;"/></g><g class="point"><path d="M24.75,45.39V25.22H42.75V45.39Z" style="vector-effect: non-scaling-stroke; opacity: 1; stroke-width: 0px; fill: rgb(246, 207, 113); fill-opacity: 1;"/></g><g class="point"><path d="M47.25,114.81V33.2H65.25V114.81Z" style="vector-effect: non-scaling-stroke; opacity: 1; stroke-width: 0px; fill: rgb(246, 207, 113); fill-opacity: 1;"/></g><g class="point"><path d="M47.25,33.2V13.03H65.25V33.2Z" style="vector-effect: non-scaling-stroke; opacity: 1; stroke-width: 0px; fill: rgb(246, 207, 113); fill-opacity: 1;"/></g><g class="point"><path d="M69.75,120.75V39.14H87.75V120.75Z" style="vector-effect: non-scaling-stroke; opacity: 1; stroke-width: 0px; fill: rgb(246, 207, 113); fill-opacity: 1;"/></g><g class="point"><path d="M69.75,39.14V18.97H87.75V39.14Z" style="vector-effect: non-scaling-stroke; opacity: 1; stroke-width: 0px; fill: rgb(246, 207, 113); fill-opacity: 1;"/></g><g class="point"><path d="M92.25,120.95V39.34H110.25V120.95Z" style="vector-effect: non-scaling-stroke; opacity: 1; stroke-width: 0px; fill: rgb(246, 207, 113); fill-opacity: 1;"/></g><g class="point"><path d="M92.25,39.34V19.17H110.25V39.34Z" style="vector-effect: non-scaling-stroke; opacity: 1; stroke-width: 0px; fill: rgb(246, 207, 113); fill-opacity: 1;"/></g><g class="point"><path d="M114.75,119.97V38.36H132.75V119.97Z" style="vector-effect: non-scaling-stroke; opacity: 1; stroke-width: 0px; fill: rgb(246, 207, 113); fill-opacity: 1;"/></g><g class="point"><path d="M114.75,38.36V18.19H132.75V38.36Z" style="vector-effect: non-scaling-stroke; opacity: 1; stroke-width: 0px; fill: rgb(246, 207, 113); fill-opacity: 1;"/></g><g class="point"><path d="M137.25,109.78V28.17H155.25V109.78Z" style="vector-effect: non-scaling-stroke; opacity: 1; stroke-width: 0px; fill: rgb(246, 207, 113); fill-opacity: 1;"/></g><g class="point"><path d="M137.25,28.17V8H155.25V28.17Z" style="vector-effect: non-scaling-stroke; opacity: 1; stroke-width: 0px; fill: rgb(246, 207, 113); fill-opacity: 1;"/></g><g class="point"><path d="M159.75,115.05V33.44H177.75V115.05Z" style="vector-effect: non-scaling-stroke; opacity: 1; stroke-width: 0px; fill: rgb(246, 207, 113); fill-opacity: 1;"/></g><g class="point"><path d="M159.75,33.44V13.27H177.75V33.44Z" style="vector-effect: non-scaling-stroke; opacity: 1; stroke-width: 0px; fill: rgb(246, 207, 113); fill-opacity: 1;"/></g></g></g></g></g><g class="overplot"/><path class="xlines-above crisp" d="M0,0" style="fill: none;"/><path class="ylines-above crisp" d="M0,0" style="fill: none;"/><g class="overlines-above"/><g class="xaxislayer-above"/><g class="yaxislayer-above"><g class="ytick"><text text-anchor="end" x="79" y="4.199999999999999" transform="translate(0,220)" style="font-family: Arial; font-size: 12px; fill: rgb(0, 0, 0); fill-opacity: 1; white-space: pre; opacity: 1;">0</text></g><g class="ytick"><text text-anchor="end" x="79" y="4.199999999999999" style="font-family: Arial; font-size: 12px; fill: rgb(0, 0, 0); fill-opacity: 1; white-space: pre; opacity: 1;" transform="translate(0,184.95999999999998)">20</text></g><g class="ytick"><text text-anchor="end" x="79" y="4.199999999999999" style="font-family: Arial; font-size: 12px; fill: rgb(0, 0, 0); fill-opacity: 1; white-space: pre; opacity: 1;" transform="translate(0,149.91)">40</text></g><g class="ytick"><text text-anchor="end" x="79" y="4.199999999999999" style="font-family: Arial; font-size: 12px; fill: rgb(0, 0, 0); fill-opacity: 1; white-space: pre; opacity: 1;" transform="translate(0,114.87)">60</text></g><g class="ytick"><text text-anchor="end" x="79" y="4.199999999999999" style="font-family: Arial; font-size: 12px; fill: rgb(0, 0, 0); fill-opacity: 1; white-space: pre; opacity: 1;" transform="translate(0,79.83)">80</text></g></g><g class="overaxes-above"/></g></g><g class="polarlayer"/><g class="smithlayer"/><g class="ternarylayer"/><g class="geolayer"/><g class="funnelarealayer"/><g class="pielayer"/><g class="iciclelayer"/><g class="treemaplayer"/><g class="sunburstlayer"/><g class="glimages"/><defs id="topdefs-6d4825"><g class="clips"/><clipPath id="legend6d4825"><rect width="124" height="86" x="0" y="0"/></clipPath></defs><g class="layer-above"><g class="imagelayer"/><g class="shapelayer"/></g><g class="infolayer"><g class="legend" pointer-events="all" transform="translate(263.6,60)"><rect class="bg" shape-rendering="crispEdges" width="124" height="86" x="0" y="0" style="stroke: rgb(68, 68, 68); stroke-opacity: 1; fill: rgb(255, 255, 255); fill-opacity: 1; stroke-width: 0px;"/><g class="scrollbox" transform="" clip-path="url(#legend6d4825)"><text class="legendtitletext" text-anchor="start" x="2" y="18.2" style="font-family: Arial; font-size: 14px; fill: rgb(0, 0, 0); fill-opacity: 1; white-space: pre;">Metabolite_group</text><g class="groups" transform=""><g class="traces" transform="translate(0,32.7)" style="opacity: 1;"><text class="legendtext" text-anchor="start" x="40" y="4.680000000000001" style="font-family: Arial; font-size: 12px; fill: rgb(0, 0, 0); fill-opacity: 1; white-space: pre;">Amino acids</text><g class="layers" style="opacity: 1;"><g class="legendfill"/><g class="legendlines"/><g class="legendsymbols"><g class="legendpoints"><path class="legendundefined" d="M6,6H-6V-6H6Z" transform="translate(20,0)" style="stroke-width: 0px; fill: rgb(220, 176, 242); fill-opacity: 1;"/></g></g></g><rect class="legendtoggle" x="0" y="-9.5" width="118.71875" height="19" style="fill: rgb(0, 0, 0); fill-opacity: 0;"/></g></g><g class="groups" transform=""><g class="traces" transform="translate(0,51.7)" style="opacity: 1;"><text class="legendtext" text-anchor="start" x="40" y="4.680000000000001" style="font-family: Arial; font-size: 12px; fill: rgb(0, 0, 0); fill-opacity: 1; white-space: pre;">Lipids</text><g class="layers" style="opacity: 1;"><g class="legendfill"/><g class="legendlines"/><g class="legendsymbols"><g class="legendpoints"><path class="legendundefined" d="M6,6H-6V-6H6Z" transform="translate(20,0)" style="stroke-width: 0px; fill: rgb(248, 156, 116); fill-opacity: 1;"/></g></g></g><rect class="legendtoggle" x="0" y="-9.5" width="118.71875" height="19" style="fill: rgb(0, 0, 0); fill-opacity: 0;"/></g></g><g class="groups" transform=""><g class="traces" transform="translate(0,70.7)" style="opacity: 1;"><text class="legendtext" text-anchor="start" x="40" y="4.680000000000001" style="font-family: Arial; font-size: 12px; fill: rgb(0, 0, 0); fill-opacity: 1; white-space: pre;">Carbohydrates</text><g class="layers" style="opacity: 1;"><g class="legendfill"/><g class="legendlines"/><g class="legendsymbols"><g class="legendpoints"><path class="legendundefined" d="M6,6H-6V-6H6Z" transform="translate(20,0)" style="stroke-width: 0px; fill: rgb(246, 207, 113); fill-opacity: 1;"/></g></g></g><rect class="legendtoggle" x="0" y="-9.5" width="118.71875" height="19" style="fill: rgb(0, 0, 0); fill-opacity: 0;"/></g></g></g><rect class="scrollbar" rx="20" ry="3" width="0" height="0" x="0" y="0" style="fill: rgb(128, 139, 164); fill-opacity: 1;"/></g><g class="g-gtitle"/><g class="g-ytitle"/></g></svg>