<svg class="main-svg" xmlns="http://www.w3.org/2000/svg" xmlns:xlink="http://www.w3.org/1999/xlink" width="400" height="300" style="" viewBox="0 0 400 300"><rect x="0" y="0" width="400" height="300" style="fill: rgb(255, 255, 255); fill-opacity: 1;"/><defs id="defs-e0dc7e"><g class="clips"><clipPath id="clipe0dc7exyplot" class="plotclip"><rect width="180" height="160"/></clipPath><clipPath class="axesclip" id="clipe0dc7ex"><rect x="80" y="0" width="180" height="300"/></clipPath><clipPath class="axesclip" id="clipe0dc7ey"><rect x="0" y="60" width="400" height="160"/></clipPath><clipPath class="axesclip" id="clipe0dc7exy"><rect x="80" y="60" width="180" height="160"/></clipPath></g><g class="gradients"/><g class="patterns"/></defs><g class="bglayer"/><g class="layer-below"><g class="imagelayer"/><g class="shapelayer"/></g><g class="cartesianlayer"><g class="subplot xy"><g class="layer-subplot"><g class="shapelayer"/><g class="imagelayer"/></g><g class="gridlayer"><g class="x"/><g class="y"><path class="ygrid crisp" transform="translate(0,183.76)" d="M80,0h180" style="stroke: rgb(238, 238, 238); stroke-opacity: 1; stroke-width: 1px;"/><path class="ygrid crisp" transform="translate(0,147.51999999999998)" d="M80,0h180" style="stroke: rgb(238, 238, 238); stroke-opacity: 1; stroke-width: 1px;"/><path class="ygrid crisp" transform="translate(0,111.27000000000001)" d="M80,0h180" style="stroke: rgb(238, 238, 238); stroke-opacity: 1; stroke-width: 1px;"/><path class="ygrid crisp" transform="translate(0,75.03)" d="M80,0h180" style="stroke: rgb(238, 238, 238); stroke-opacity: 1; stroke-width: 1px;"/></g></g><g class="zerolinelayer"><path class="yzl zl crisp" transform="translate(0,220)" d="M80,0h180" style="stroke: rgb(68, 68, 68); stroke-opacity: 1; stroke-width: 1px;"/></g><path class="xlines-below"/><path class="ylines-below"/><g class="overlines-below"/><g class="xaxislayer-below"/><g class="yaxislayer-below"/><g class="overaxes-below"/><g class="plot" transform="translate(80,60)" clip-path="url(#clipe0dc7exyplot)"><g class="barlayer mlayer"><g class="trace bars" style="opacity: 1;"><g class="points"><g class="point"><path d="M2.25,160V159.1H20.25V160Z" style="vector-effect: non-scaling-stroke; opacity: 1; stroke-width: 0px; fill: rgb(220, 176, 242); fill-opacity: 1;"/></g><g class="point"><path d="M2.25,159.1V157.1H20.25V159.1Z" style="vector-effect: non-scaling-stroke; opacity: 1; stroke-width: 0px; fill: rgb(220, 176, 242); fill-opacity: 1;"/></g><g class="point"><path d="M2.25,157.1V153.49H20.25V157.1Z" style="vector-effect: non-scaling-stroke; opacity: 1; stroke-width: 0px; fill: rgb(220, 176, 242); fill-opacity: 1;"/></g><g class="point"><path d="M2.25,153.49V152.71H20.25V153.49Z" style="vector-effect: non-scaling-stroke; opacity: 1; stroke-width: 0px; fill: rgb(220, 176, 242); fill-opacity: 1;"/></g><g class="point"><path d="M2.25,152.71V150.34H20.25V152.71Z" style="vector-effect: non-scaling-stroke; opacity: 1; stroke-width: 0px; fill: rgb(220, 176, 242); fill-opacity: 1;"/></g><g class="point"><path d="M2.25,150.34V149.15H20.25V150.34Z" style="vector-effect: non-scaling-stroke; opacity: 1; stroke-width: 0px; fill: rgb(220, 176, 242); fill-opacity: 1;"/></g><g class="point"><path d="M2.25,149.15V148.59H20.25V149.15Z" style="vector-effect: non-scaling-stroke; opacity: 1; stroke-width: 0px; fill: rgb(220, 176, 242); fill-opacity: 1;"/></g><g class="point"><path d="M2.25,148.59V146.36H20.25V148.59Z" style="vector-effect: non-scaling-stroke; opacity: 1; stroke-width: 0px; fill: rgb(220, 176, 242); fill-opacity: 1;"/></g><g class="point"><path d="M2.25,146.36V145.52H20.25V146.36Z" style="vector-effect: non-scaling-stroke; opacity: 1; stroke-width: 0px; fill: rgb(220, 176, 242); fill-opacity: 1;"/></g><g class="point"><path d="M2.25,145.52V143.75H20.25V145.52Z" style="vector-effect: non-scaling-stroke; opacity: 1; stroke-width: 0px; fill: rgb(220, 176, 242); fill-opacity: 1;"/></g><g class="point"><path d="M2.25,143.75V142.92H20.25V143.75Z" style="vector-effect: non-scaling-stroke; opacity: 1; stroke-width: 0px; fill: rgb(220, 176, 242); fill-opacity: 1;"/></g><g class="point"><path d="M2.25,142.92V136.57H20.25V142.92Z" style="vector-effect: non-scaling-stroke; opacity: 1; stroke-width: 0px; fill: rgb(220, 176, 242); fill-opacity: 1;"/></g><g class="point"><path d="M2.25,136.57V136.11H20.25V136.57Z" style="vector-effect: non-scaling-stroke; opacity: 1; stroke-width: 0px; fill: rgb(220, 176, 242); fill-opacity: 1;"/></g><g class="point"><path d="M2.25,136.11V131.43H20.25V136.11Z" style="vector-effect: non-scaling-stroke; opacity: 1; stroke-width: 0px; fill: rgb(220, 176, 242); fill-opacity: 1;"/></g><g class="point"><path d="M2.25,131.43V129.99H20.25V131.43Z" style="vector-effect: non-scaling-stroke; opacity: 1; stroke-width: 0px; fill: rgb(220, 176, 242); fill-opacity: 1;"/></g><g class="point"><path d="M2.25,129.99V127.69H20.25V129.99Z" style="vector-effect: non-scaling-stroke; opacity: 1; stroke-width: 0px; fill: rgb(220, 176, 242); fill-opacity: 1;"/></g><g class="point"><path d="M24.75,160V159.1H42.75V160Z" style="vector-effect: non-scaling-stroke; opacity: 1; stroke-width: 0px; fill: rgb(220, 176, 242); fill-opacity: 1;"/></g><g class="point"><path d="M24.75,159.1V157.1H42.75V159.1Z" style="vector-effect: non-scaling-stroke; opacity: 1; stroke-width: 0px; fill: rgb(220, 176, 242); fill-opacity: 1;"/></g><g class="point"><path d="M24.75,157.1V153.49H42.75V157.1Z" style="vector-effect: non-scaling-stroke; opacity: 1; stroke-width: 0px; fill: rgb(220, 176, 242); fill-opacity: 1;"/></g><g class="point"><path d="M24.75,153.49V152.71H42.75V153.49Z" style="vector-effect: non-scaling-stroke; opacity: 1; stroke-width: 0px; fill: rgb(220, 176, 242); fill-opacity: 1;"/></g><g class="point"><path d="M24.75,152.71V150.34H42.75V152.71Z" style="vector-effect: non-scaling-stroke; opacity: 1; stroke-width: 0px; fill: rgb(220, 176, 242); fill-opacity: 1;"/></g><g class="point"><path d="M24.75,150.34V149.15H42.75V150.34Z" style="vector-effect: non-scaling-stroke; opacity: 1; stroke-width: 0px; fill: rgb(220, 176, 242); fill-opacity: 1;"/></g><g class="point"><path d="M24.75,149.15V148.59H42.75V149.15Z" style="vector-effect: non-scaling-stroke; opacity: 1; stroke-width: 0px; fill: rgb(220, 176, 242); fill-opacity: 1;"/></g><g class="point"><path d="M24.75,148.59V146.36H42.75V148.59Z" style="vector-effect: non-scaling-stroke; opacity: 1; stroke-width: 0px; fill: rgb(220, 176, 242); fill-opacity: 1;"/></g><g class="point"><path d="M24.75,146.36V145.52H42.75V146.36Z" style="vector-effect: non-scaling-stroke; opacity: 1; stroke-width: 0px; fill: rgb(220, 176, 242); fill-opacity: 1;"/></g><g class="point"><path d="M24.75,145.52V143.75H42.75V145.52Z" style="vector-effect: non-scaling-stroke; opacity: 1; stroke-width: 0px; fill: rgb(220, 176, 242); fill-opacity: 1;"/></g><g class="point"><path d="M24.75,143.75V142.92H42.75V143.75Z" style="vector-effect: non-scaling-stroke; opacity: 1; stroke-width: 0px; fill: rgb(220, 176, 242); fill-opacity: 1;"/></g><g class="point"><path d="M24.75,142.92V136.57H42.75V142.92Z" style="vector-effect: non-scaling-stroke; opacity: 1; stroke-width: 0px; fill: rgb(220, 176, 242); fill-opacity: 1;"/></g><g class="point"><path d="M24.75,136.57V136.11H42.75V136.57Z" style="vector-effect: non-scaling-stroke; opacity: 1; stroke-width: 0px; fill: rgb(220, 176, 242); fill-opacity: 1;"/></g><g class="point"><path d="M24.75,136.11V131.43H42.75V136.11Z" style="vector-effect: non-scaling-stroke; opacity: 1; stroke-width: 0px; fill: rgb(220, 176, 242); fill-opacity: 1;"/></g><g class="point"><path d="M24.75,131.43V129.99H42.75V131.43Z" style="vector-effect: non-scaling-stroke; opacity: 1; stroke-width: 0px; fill: rgb(220, 176, 242); fill-opacity: 1;"/></g><g class="point"><path d="M24.75,129.99V127.69H42.75V129.99Z" style="vector-effect: non-scaling-stroke; opacity: 1; stroke-width: 0px; fill: rgb(220, 176, 242); fill-opacity: 1;"/></g><g class="point"><path d="M47.25,160V159.1H65.25V160Z" style="vector-effect: non-scaling-stroke; opacity: 1; stroke-width: 0px; fill: rgb(220, 176, 242); fill-opacity: 1;"/></g><g class="point"><path d="M47.25,159.1V157.1H65.25V159.1Z" style="vector-effect: non-scaling-stroke; opacity: 1; stroke-width: 0px; fill: rgb(220, 176, 242); fill-opacity: 1;"/></g><g class="point"><path d="M47.25,157.1V153.49H65.25V157.1Z" style="vector-effect: non-scaling-stroke; opacity: 1; stroke-width: 0px; fill: rgb(220, 176, 242); fill-opacity: 1;"/></g><g class="point"><path d="M47.25,153.49V150.77H65.25V153.49Z" style="vector-effect: non-scaling-stroke; opacity: 1; stroke-width: 0px; fill: rgb(220, 176, 242); fill-opacity: 1;"/></g><g class="point"><path d="M47.25,150.77V149.98H65.25V150.77Z" style="vector-effect: non-scaling-stroke; opacity: 1; stroke-width: 0px; fill: rgb(220, 176, 242); fill-opacity: 1;"/></g><g class="point"><path d="M47.25,149.98V147.61H65.25V149.98Z" style="vector-effect: non-scaling-stroke; opacity: 1; stroke-width: 0px; fill: rgb(220, 176, 242); fill-opacity: 1;"/></g><g class="point"><path d="M47.25,147.61V146.42H65.25V147.61Z" style="vector-effect: non-scaling-stroke; opacity: 1; stroke-width: 0px; fill: rgb(220, 176, 242); fill-opacity: 1;"/></g><g class="point"><path d="M47.25,146.42V145.87H65.25V146.42Z" style="vector-effect: non-scaling-stroke; opacity: 1; stroke-width: 0px; fill: rgb(220, 176, 242); fill-opacity: 1;"/></g><g class="point"><path d="M47.25,145.87V143.64H65.25V145.87Z" style="vector-effect: non-scaling-stroke; opacity: 1; stroke-width: 0px; fill: rgb(220, 176, 242); fill-opacity: 1;"/></g><g class="point"><path d="M47.25,143.64V142.79H65.25V143.64Z" style="vector-effect: non-scaling-stroke; opacity: 1; stroke-width: 0px; fill: rgb(220, 176, 242); fill-opacity: 1;"/></g><g class="point"><path d="M47.25,142.79V141.71H65.25V142.79Z" style="vector-effect: non-scaling-stroke; opacity: 1; stroke-width: 0px; fill: rgb(220, 176, 242); fill-opacity: 1;"/></g><g class="point"><path d="M47.25,141.71V139.94H65.25V141.71Z" style="vector-effect: non-scaling-stroke; opacity: 1; stroke-width: 0px; fill: rgb(220, 176, 242); fill-opacity: 1;"/></g><g class="point"><path d="M47.25,139.94V139.1H65.25V139.94Z" style="vector-effect: non-scaling-stroke; opacity: 1; stroke-width: 0px; fill: rgb(220, 176, 242); fill-opacity: 1;"/></g><g class="point"><path d="M47.25,139.1V132.76H65.25V139.1Z" style="vector-effect: non-scaling-stroke; opacity: 1; stroke-width: 0px; fill: rgb(220, 176, 242); fill-opacity: 1;"/></g><g class="point"><path d="M47.25,132.76V132.3H65.25V132.76Z" style="vector-effect: non-scaling-stroke; opacity: 1; stroke-width: 0px; fill: rgb(220, 176, 242); fill-opacity: 1;"/></g><g class="point"><path d="M47.25,132.3V127.62H65.25V132.3Z" style="vector-effect: non-scaling-stroke; opacity: 1; stroke-width: 0px; fill: rgb(220, 176, 242); fill-opacity: 1;"/></g><g class="point"><path d="M47.25,127.62V126.17H65.25V127.62Z" style="vector-effect: non-scaling-stroke; opacity: 1; stroke-width: 0px; fill: rgb(220, 176, 242); fill-opacity: 1;"/></g><g class="point"><path d="M47.25,126.17V123.88H65.25V126.17Z" style="vector-effect: non-scaling-stroke; opacity: 1; stroke-width: 0px; fill: rgb(220, 176, 242); fill-opacity: 1;"/></g><g class="point"><path d="M69.75,160V159.1H87.75V160Z" style="vector-effect: non-scaling-stroke; opacity: 1; stroke-width: 0px; fill: rgb(220, 176, 242); fill-opacity: 1;"/></g><g class="point"><path d="M69.75,159.1V157.1H87.75V159.1Z" style="vector-effect: non-scaling-stroke; opacity: 1; stroke-width: 0px; fill: rgb(220, 176, 242); fill-opacity: 1;"/></g><g class="point"><path d="M69.75,157.1V153.49H87.75V157.1Z" style="vector-effect: non-scaling-stroke; opacity: 1; stroke-width: 0px; fill: rgb(220, 176, 242); fill-opacity: 1;"/></g><g class="point"><path d="M69.75,153.49V153.19H87.75V153.49Z" style="vector-effect: non-scaling-stroke; opacity: 1; stroke-width: 0px; fill: rgb(220, 176, 242); fill-opacity: 1;"/></g><g class="point"><path d="M69.75,153.19V152.41H87.75V153.19Z" style="vector-effect: non-scaling-stroke; opacity: 1; stroke-width: 0px; fill: rgb(220, 176, 242); fill-opacity: 1;"/></g><g class="point"><path d="M69.75,152.41V150.04H87.75V152.41Z" style="vector-effect: non-scaling-stroke; opacity: 1; stroke-width: 0px; fill: rgb(220, 176, 242); fill-opacity: 1;"/></g><g class="point"><path d="M69.75,150.04V148.85H87.75V150.04Z" style="vector-effect: non-scaling-stroke; opacity: 1; stroke-width: 0px; fill: rgb(220, 176, 242); fill-opacity: 1;"/></g><g class="point"><path d="M69.75,148.85V148.29H87.75V148.85Z" style="vector-effect: non-scaling-stroke; opacity: 1; stroke-width: 0px; fill: rgb(220, 176, 242); fill-opacity: 1;"/></g><g class="point"><path d="M69.75,148.29V146.06H87.75V148.29Z" style="vector-effect: non-scaling-stroke; opacity: 1; stroke-width: 0px; fill: rgb(220, 176, 242); fill-opacity: 1;"/></g><g class="point"><path d="M69.75,146.06V145.22H87.75V146.06Z" style="vector-effect: non-scaling-stroke; opacity: 1; stroke-width: 0px; fill: rgb(220, 176, 242); fill-opacity: 1;"/></g><g class="point"><path d="M69.75,145.22V144.13H87.75V145.22Z" style="vector-effect: non-scaling-stroke; opacity: 1; stroke-width: 0px; fill: rgb(220, 176, 242); fill-opacity: 1;"/></g><g class="point"><path d="M69.75,144.13V142.37H87.75V144.13Z" style="vector-effect: non-scaling-stroke; opacity: 1; stroke-width: 0px; fill: rgb(220, 176, 242); fill-opacity: 1;"/></g><g class="point"><path d="M69.75,142.37V136.02H87.75V142.37Z" style="vector-effect: non-scaling-stroke; opacity: 1; stroke-width: 0px; fill: rgb(220, 176, 242); fill-opacity: 1;"/></g><g class="point"><path d="M69.75,136.02V135.56H87.75V136.02Z" style="vector-effect: non-scaling-stroke; opacity: 1; stroke-width: 0px; fill: rgb(220, 176, 242); fill-opacity: 1;"/></g><g class="point"><path d="M69.75,135.56V130.88H87.75V135.56Z" style="vector-effect: non-scaling-stroke; opacity: 1; stroke-width: 0px; fill: rgb(220, 176, 242); fill-opacity: 1;"/></g><g class="point"><path d="M69.75,130.88V129.43H87.75V130.88Z" style="vector-effect: non-scaling-stroke; opacity: 1; stroke-width: 0px; fill: rgb(220, 176, 242); fill-opacity: 1;"/></g><g class="point"><path d="M69.75,129.43V127.14H87.75V129.43Z" style="vector-effect: non-scaling-stroke; opacity: 1; stroke-width: 0px; fill: rgb(220, 176, 242); fill-opacity: 1;"/></g><g class="point"><path d="M92.25,160V158.95H110.25V160Z" style="vector-effect: non-scaling-stroke; opacity: 1; stroke-width: 0px; fill: rgb(220, 176, 242); fill-opacity: 1;"/></g><g class="point"><path d="M92.25,158.95V156.63H110.25V158.95Z" style="vector-effect: non-scaling-stroke; opacity: 1; stroke-width: 0px; fill: rgb(220, 176, 242); fill-opacity: 1;"/></g><g class="point"><path d="M92.25,156.63V152.45H110.25V156.63Z" style="vector-effect: non-scaling-stroke; opacity: 1; stroke-width: 0px; fill: rgb(220, 176, 242); fill-opacity: 1;"/></g><g class="point"><path d="M92.25,152.45V150.99H110.25V152.45Z" style="vector-effect: non-scaling-stroke; opacity: 1; stroke-width: 0px; fill: rgb(220, 176, 242); fill-opacity: 1;"/></g><g class="point"><path d="M92.25,150.99V148.23H110.25V150.99Z" style="vector-effect: non-scaling-stroke; opacity: 1; stroke-width: 0px; fill: rgb(220, 176, 242); fill-opacity: 1;"/></g><g class="point"><path d="M92.25,148.23V146.86H110.25V148.23Z" style="vector-effect: non-scaling-stroke; opacity: 1; stroke-width: 0px; fill: rgb(220, 176, 242); fill-opacity: 1;"/></g><g class="point"><path d="M92.25,146.86V146.25H110.25V146.86Z" style="vector-effect: non-scaling-stroke; opacity: 1; stroke-width: 0px; fill: rgb(220, 176, 242); fill-opacity: 1;"/></g><g class="point"><path d="M92.25,146.25V143.67H110.25V146.25Z" style="vector-effect: non-scaling-stroke; opacity: 1; stroke-width: 0px; fill: rgb(220, 176, 242); fill-opacity: 1;"/></g><g class="point"><path d="M92.25,143.67V142.68H110.25V143.67Z" style="vector-effect: non-scaling-stroke; opacity: 1; stroke-width: 0px; fill: rgb(220, 176, 242); fill-opacity: 1;"/></g><g class="point"><path d="M92.25,142.68V140.63H110.25V142.68Z" style="vector-effect: non-scaling-stroke; opacity: 1; stroke-width: 0px; fill: rgb(220, 176, 242); fill-opacity: 1;"/></g><g class="point"><path d="M92.25,140.63V140.45H110.25V140.63Z" style="vector-effect: non-scaling-stroke; opacity: 1; stroke-width: 0px; fill: rgb(220, 176, 242); fill-opacity: 1;"/></g><g class="point"><path d="M92.25,140.45V133.09H110.25V140.45Z" style="vector-effect: non-scaling-stroke; opacity: 1; stroke-width: 0px; fill: rgb(220, 176, 242); fill-opacity: 1;"/></g><g class="point"><path d="M92.25,133.09V132.53H110.25V133.09Z" style="vector-effect: non-scaling-stroke; opacity: 1; stroke-width: 0px; fill: rgb(220, 176, 242); fill-opacity: 1;"/></g><g class="point"><path d="M92.25,132.53V127.12H110.25V132.53Z" style="vector-effect: non-scaling-stroke; opacity: 1; stroke-width: 0px; fill: rgb(220, 176, 242); fill-opacity: 1;"/></g><g class="point"><path d="M92.25,127.12V125.46H110.25V127.12Z" style="vector-effect: non-scaling-stroke; opacity: 1; stroke-width: 0px; fill: rgb(220, 176, 242); fill-opacity: 1;"/></g><g class="point"><path d="M92.25,125.46V122.78H110.25V125.46Z" style="vector-effect: non-scaling-stroke; opacity: 1; stroke-width: 0px; fill: rgb(220, 176, 242); fill-opacity: 1;"/></g><g class="point"><path d="M114.75,160V158.95H132.75V160Z" style="vector-effect: non-scaling-stroke; opacity: 1; stroke-width: 0px; fill: rgb(220, 176, 242); fill-opacity: 1;"/></g><g class="point"><path d="M114.75,158.95V156.63H132.75V158.95Z" style="vector-effect: non-scaling-stroke; opacity: 1; stroke-width: 0px; fill: rgb(220, 176, 242); fill-opacity: 1;"/></g><g class="point"><path d="M114.75,156.63V152.45H132.75V156.63Z" style="vector-effect: non-scaling-stroke; opacity: 1; stroke-width: 0px; fill: rgb(220, 176, 242); fill-opacity: 1;"/></g><g class="point"><path d="M114.75,152.45V150.99H132.75V152.45Z" style="vector-effect: non-scaling-stroke; opacity: 1; stroke-width: 0px; fill: rgb(220, 176, 242); fill-opacity: 1;"/></g><g class="point"><path d="M114.75,150.99V148.23H132.75V150.99Z" style="vector-effect: non-scaling-stroke; opacity: 1; stroke-width: 0px; fill: rgb(220, 176, 242); fill-opacity: 1;"/></g><g class="point"><path d="M114.75,148.23V146.86H132.75V148.23Z" style="vector-effect: non-scaling-stroke; opacity: 1; stroke-width: 0px; fill: rgb(220, 176, 242); fill-opacity: 1;"/></g><g class="point"><path d="M114.75,146.86V146.25H132.75V146.86Z" style="vector-effect: non-scaling-stroke; opacity: 1; stroke-width: 0px; fill: rgb(220, 176, 242); fill-opacity: 1;"/></g><g class="point"><path d="M114.75,146.25V143.67H132.75V146.25Z" style="vector-effect: non-scaling-stroke; opacity: 1; stroke-width: 0px; fill: rgb(220, 176, 242); fill-opacity: 1;"/></g><g class="point"><path d="M114.75,143.67V142.68H132.75V143.67Z" style="vector-effect: non-scaling-stroke; opacity: 1; stroke-width: 0px; fill: rgb(220, 176, 242); fill-opacity: 1;"/></g><g class="point"><path d="M114.75,142.68V140.63H132.75V142.68Z" style="vector-effect: non-scaling-stroke; opacity: 1; stroke-width: 0px; fill: rgb(220, 176, 242); fill-opacity: 1;"/></g><g class="point"><path d="M114.75,140.63V140.45H132.75V140.63Z" style="vector-effect: non-scaling-stroke; opacity: 1; stroke-width: 0px; fill: rgb(220, 176, 242); fill-opacity: 1;"/></g><g class="point"><path d="M114.75,140.45V133.09H132.75V140.45Z" style="vector-effect: non-scaling-stroke; opacity: 1; stroke-width: 0px; fill: rgb(220, 176, 242); fill-opacity: 1;"/></g><g class="point"><path d="M114.75,133.09V132.53H132.75V133.09Z" style="vector-effect: non-scaling-stroke; opacity: 1; stroke-width: 0px; fill: rgb(220, 176, 242); fill-opacity: 1;"/></g><g class="point"><path d="M114.75,132.53V127.12H132.75V132.53Z" style="vector-effect: non-scaling-stroke; opacity: 1; stroke-width: 0px; fill: rgb(220, 176, 242); fill-opacity: 1;"/></g><g class="point"><path d="M114.75,127.12V125.46H132.75V127.12Z" style="vector-effect: non-scaling-stroke; opacity: 1; stroke-width: 0px; fill: rgb(220, 176, 242); fill-opacity: 1;"/></g><g class="point"><path d="M114.75,125.46V122.78H132.75V125.46Z" style="vector-effect: non-scaling-stroke; opacity: 1; stroke-width: 0px; fill: rgb(220, 176, 242); fill-opacity: 1;"/></g><g class="point"><path d="M137.25,160V158.95H155.25V160Z" style="vector-effect: non-scaling-stroke; opacity: 1; stroke-width: 0px; fill: rgb(220, 176, 242); fill-opacity: 1;"/></g><g class="point"><path d="M137.25,158.95V156.63H155.25V158.95Z" style="vector-effect: non-scaling-stroke; opacity: 1; stroke-width: 0px; fill: rgb(220, 176, 242); fill-opacity: 1;"/></g><g class="point"><path d="M137.25,156.63V152.45H155.25V156.63Z" style="vector-effect: non-scaling-stroke; opacity: 1; stroke-width: 0px; fill: rgb(220, 176, 242); fill-opacity: 1;"/></g><g class="point"><path d="M137.25,152.45V149.28H155.25V152.45Z" style="vector-effect: non-scaling-stroke; opacity: 1; stroke-width: 0px; fill: rgb(220, 176, 242); fill-opacity: 1;"/></g><g class="point"><path d="M137.25,149.28V147.82H155.25V149.28Z" style="vector-effect: non-scaling-stroke; opacity: 1; stroke-width: 0px; fill: rgb(220, 176, 242); fill-opacity: 1;"/></g><g class="point"><path d="M137.25,147.82V145.06H155.25V147.82Z" style="vector-effect: non-scaling-stroke; opacity: 1; stroke-width: 0px; fill: rgb(220, 176, 242); fill-opacity: 1;"/></g><g class="point"><path d="M137.25,145.06V143.69H155.25V145.06Z" style="vector-effect: non-scaling-stroke; opacity: 1; stroke-width: 0px; fill: rgb(220, 176, 242); fill-opacity: 1;"/></g><g class="point"><path d="M137.25,143.69V143.07H155.25V143.69Z" style="vector-effect: non-scaling-stroke; opacity: 1; stroke-width: 0px; fill: rgb(220, 176, 242); fill-opacity: 1;"/></g><g class="point"><path d="M137.25,143.07V140.49H155.25V143.07Z" style="vector-effect: non-scaling-stroke; opacity: 1; stroke-width: 0px; fill: rgb(220, 176, 242); fill-opacity: 1;"/></g><g class="point"><path d="M137.25,140.49V139.51H155.25V140.49Z" style="vector-effect: non-scaling-stroke; opacity: 1; stroke-width: 0px; fill: rgb(220, 176, 242); fill-opacity: 1;"/></g><g class="point"><path d="M137.25,139.51V138.23H155.25V139.51Z" style="vector-effect: non-scaling-stroke; opacity: 1; stroke-width: 0px; fill: rgb(220, 176, 242); fill-opacity: 1;"/></g><g class="point"><path d="M137.25,138.23V136.19H155.25V138.23Z" style="vector-effect: non-scaling-stroke; opacity: 1; stroke-width: 0px; fill: rgb(220, 176, 242); fill-opacity: 1;"/></g><g class="point"><path d="M137.25,136.19V136H155.25V136.19Z" style="vector-effect: non-scaling-stroke; opacity: 1; stroke-width: 0px; fill: rgb(220, 176, 242); fill-opacity: 1;"/></g><g class="point"><path d="M137.25,136V128.64H155.25V136Z" style="vector-effect: non-scaling-stroke; opacity: 1; stroke-width: 0px; fill: rgb(220, 176, 242); fill-opacity: 1;"/></g><g class="point"><path d="M137.25,128.64V128.09H155.25V128.64Z" style="vector-effect: non-scaling-stroke; opacity: 1; stroke-width: 0px; fill: rgb(220, 176, 242); fill-opacity: 1;"/></g><g class="point"><path d="M137.25,128.09V122.68H155.25V128.09Z" style="vector-effect: non-scaling-stroke; opacity: 1; stroke-width: 0px; fill: rgb(220, 176, 242); fill-opacity: 1;"/></g><g class="point"><path d="M137.25,122.68V121.01H155.25V122.68Z" style="vector-effect: non-scaling-stroke; opacity: 1; stroke-width: 0px; fill: rgb(220, 176, 242); fill-opacity: 1;"/></g><g class="point"><path d="M137.25,121.01V118.34H155.25V121.01Z" style="vector-effect: non-scaling-stroke; opacity: 1; stroke-width: 0px; fill: rgb(220, 176, 242); fill-opacity: 1;"/></g><g class="point"><path d="M159.75,160V158.95H177.75V160Z" style="vector-effect: non-scaling-stroke; opacity: 1; stroke-width: 0px; fill: rgb(220, 176, 242); fill-opacity: 1;"/></g><g class="point"><path d="M159.75,158.95V156.63H177.75V158.95Z" style="vector-effect: non-scaling-stroke; opacity: 1; stroke-width: 0px; fill: rgb(220, 176, 242); fill-opacity: 1;"/></g><g class="point"><path d="M159.75,156.63V152.45H177.75V156.63Z" style="vector-effect: non-scaling-stroke; opacity: 1; stroke-width: 0px; fill: rgb(220, 176, 242); fill-opacity: 1;"/></g><g class="point"><path d="M159.75,152.45V151.87H177.75V152.45Z" style="vector-effect: non-scaling-stroke; opacity: 1; stroke-width: 0px; fill: rgb(220, 176, 242); fill-opacity: 1;"/></g><g class="point"><path d="M159.75,151.87V150.41H177.75V151.87Z" style="vector-effect: non-scaling-stroke; opacity: 1; stroke-width: 0px; fill: rgb(220, 176, 242); fill-opacity: 1;"/></g><g class="point"><path d="M159.75,150.41V147.65H177.75V150.41Z" style="vector-effect: non-scaling-stroke; opacity: 1; stroke-width: 0px; fill: rgb(220, 176, 242); fill-opacity: 1;"/></g><g class="point"><path d="M159.75,147.65V146.28H177.75V147.65Z" style="vector-effect: non-scaling-stroke; opacity: 1; stroke-width: 0px; fill: rgb(220, 176, 242); fill-opacity: 1;"/></g><g class="point"><path d="M159.75,146.28V145.66H177.75V146.28Z" style="vector-effect: non-scaling-stroke; opacity: 1; stroke-width: 0px; fill: rgb(220, 176, 242); fill-opacity: 1;"/></g><g class="point"><path d="M159.75,145.66V143.08H177.75V145.66Z" style="vector-effect: non-scaling-stroke; opacity: 1; stroke-width: 0px; fill: rgb(220, 176, 242); fill-opacity: 1;"/></g><g class="point"><path d="M159.75,143.08V142.09H177.75V143.08Z" style="vector-effect: non-scaling-stroke; opacity: 1; stroke-width: 0px; fill: rgb(220, 176, 242); fill-opacity: 1;"/></g><g class="point"><path d="M159.75,142.09V140.82H177.75V142.09Z" style="vector-effect: non-scaling-stroke; opacity: 1; stroke-width: 0px; fill: rgb(220, 176, 242); fill-opacity: 1;"/></g><g class="point"><path d="M159.75,140.82V138.78H177.75V140.82Z" style="vector-effect: non-scaling-stroke; opacity: 1; stroke-width: 0px; fill: rgb(220, 176, 242); fill-opacity: 1;"/></g><g class="point"><path d="M159.75,138.78V131.42H177.75V138.78Z" style="vector-effect: non-scaling-stroke; opacity: 1; stroke-width: 0px; fill: rgb(220, 176, 242); fill-opacity: 1;"/></g><g class="point"><path d="M159.75,131.42V130.86H177.75V131.42Z" style="vector-effect: non-scaling-stroke; opacity: 1; stroke-width: 0px; fill: rgb(220, 176, 242); fill-opacity: 1;"/></g><g class="point"><path d="M159.75,130.86V125.45H177.75V130.86Z" style="vector-effect: non-scaling-stroke; opacity: 1; stroke-width: 0px; fill: rgb(220, 176, 242); fill-opacity: 1;"/></g><g class="point"><path d="M159.75,125.45V123.79H177.75V125.45Z" style="vector-effect: non-scaling-stroke; opacity: 1; stroke-width: 0px; fill: rgb(220, 176, 242); fill-opacity: 1;"/></g><g class="point"><path d="M159.75,123.79V121.11H177.75V123.79Z" style="vector-effect: non-scaling-stroke; opacity: 1; stroke-width: 0px; fill: rgb(220, 176, 242); fill-opacity: 1;"/></g></g></g><g class="trace bars" style="opacity: 1;"><g class="points"><g class="point"><path d="M2.25,127.69V127.55H20.25V127.69Z" style="vector-effect: non-scaling-stroke; opacity: 1; stroke-width: 0px; fill: rgb(248, 156, 116); fill-opacity: 1;"/></g><g class="point"><path d="M2.25,127.55V127.48H20.25V127.55Z" style="vector-effect: non-scaling-stroke; opacity: 1; stroke-width: 0px; fill: rgb(248, 156, 116); fill-opacity: 1;"/></g><g class="point"><path d="M2.25,127.48V125.73H20.25V127.48Z" style="vector-effect: non-scaling-stroke; opacity: 1; stroke-width: 0px; fill: rgb(248, 156, 116); fill-opacity: 1;"/></g><g class="point"><path d="M2.25,125.73V125.34H20.25V125.73Z" style="vector-effect: non-scaling-stroke; opacity: 1; stroke-width: 0px; fill: rgb(248, 156, 116); fill-opacity: 1;"/></g><g class="point"><path d="M24.75,127.69V127.55H42.75V127.69Z" style="vector-effect: non-scaling-stroke; opacity: 1; stroke-width: 0px; fill: rgb(248, 156, 116); fill-opacity: 1;"/></g><g class="point"><path d="M24.75,127.55V127.14H42.75V127.55Z" style="vector-effect: non-scaling-stroke; opacity: 1; stroke-width: 0px; fill: rgb(248, 156, 116); fill-opacity: 1;"/></g><g class="point"><path d="M24.75,127.14V126.88H42.75V127.14Z" style="vector-effect: non-scaling-stroke; opacity: 1; stroke-width: 0px; fill: rgb(248, 156, 116); fill-opacity: 1;"/></g><g class="point"><path d="M24.75,126.88V125.87H42.75V126.88Z" style="vector-effect: non-scaling-stroke; opacity: 1; stroke-width: 0px; fill: rgb(248, 156, 116); fill-opacity: 1;"/></g><g class="point"><path d="M47.25,123.88V122.34H65.25V123.88Z" style="vector-effect: non-scaling-stroke; opacity: 1; stroke-width: 0px; fill: rgb(248, 156, 116); fill-opacity: 1;"/></g><g class="point"><path d="M47.25,122.34V122.2H65.25V122.34Z" style="vector-effect: non-scaling-stroke; opacity: 1; stroke-width: 0px; fill: rgb(248, 156, 116); fill-opacity: 1;"/></g><g class="point"><path d="M47.25,122.2V120.55H65.25V122.2Z" style="vector-effect: non-scaling-stroke; opacity: 1; stroke-width: 0px; fill: rgb(248, 156, 116); fill-opacity: 1;"/></g><g class="point"><path d="M47.25,120.55V118.86H65.25V120.55Z" style="vector-effect: non-scaling-stroke; opacity: 1; stroke-width: 0px; fill: rgb(248, 156, 116); fill-opacity: 1;"/></g><g class="point"><path d="M47.25,118.86V117.13H65.25V118.86Z" style="vector-effect: non-scaling-stroke; opacity: 1; stroke-width: 0px; fill: rgb(248, 156, 116); fill-opacity: 1;"/></g><g class="point"><path d="M47.25,117.13V115.39H65.25V117.13Z" style="vector-effect: non-scaling-stroke; opacity: 1; stroke-width: 0px; fill: rgb(248, 156, 116); fill-opacity: 1;"/></g><g class="point"><path d="M47.25,115.39V113.51H65.25V115.39Z" style="vector-effect: non-scaling-stroke; opacity: 1; stroke-width: 0px; fill: rgb(248, 156, 116); fill-opacity: 1;"/></g><g class="point"><path d="M47.25,113.51V113.26H65.25V113.51Z" style="vector-effect: non-scaling-stroke; opacity: 1; stroke-width: 0px; fill: rgb(248, 156, 116); fill-opacity: 1;"/></g><g class="point"><path d="M69.75,127.14V125.6H87.75V127.14Z" style="vector-effect: non-scaling-stroke; opacity: 1; stroke-width: 0px; fill: rgb(248, 156, 116); fill-opacity: 1;"/></g><g class="point"><path d="M69.75,125.6V125.46H87.75V125.6Z" style="vector-effect: non-scaling-stroke; opacity: 1; stroke-width: 0px; fill: rgb(248, 156, 116); fill-opacity: 1;"/></g><g class="point"><path d="M69.75,125.46V125.41H87.75V125.46Z" style="vector-effect: non-scaling-stroke; opacity: 1; stroke-width: 0px; fill: rgb(248, 156, 116); fill-opacity: 1;"/></g><g class="point"><path d="M69.75,125.41V123.72H87.75V125.41Z" style="vector-effect: non-scaling-stroke; opacity: 1; stroke-width: 0px; fill: rgb(248, 156, 116); fill-opacity: 1;"/></g><g class="point"><path d="M69.75,123.72V122H87.75V123.72Z" style="vector-effect: non-scaling-stroke; opacity: 1; stroke-width: 0px; fill: rgb(248, 156, 116); fill-opacity: 1;"/></g><g class="point"><path d="M69.75,122V120.25H87.75V122Z" style="vector-effect: non-scaling-stroke; opacity: 1; stroke-width: 0px; fill: rgb(248, 156, 116); fill-opacity: 1;"/></g><g class="point"><path d="M69.75,120.25V119.66H87.75V120.25Z" style="vector-effect: non-scaling-stroke; opacity: 1; stroke-width: 0px; fill: rgb(248, 156, 116); fill-opacity: 1;"/></g><g class="point"><path d="M69.75,119.66V119.41H87.75V119.66Z" style="vector-effect: non-scaling-stroke; opacity: 1; stroke-width: 0px; fill: rgb(248, 156, 116); fill-opacity: 1;"/></g><g class="point"><path d="M92.25,122.78V122.64H110.25V122.78Z" style="vector-effect: non-scaling-stroke; opacity: 1; stroke-width: 0px; fill: rgb(248, 156, 116); fill-opacity: 1;"/></g><g class="point"><path d="M92.25,122.64V122.57H110.25V122.64Z" style="vector-effect: non-scaling-stroke; opacity: 1; stroke-width: 0px; fill: rgb(248, 156, 116); fill-opacity: 1;"/></g><g class="point"><path d="M92.25,122.57V121.81H110.25V122.57Z" style="vector-effect: non-scaling-stroke; opacity: 1; stroke-width: 0px; fill: rgb(248, 156, 116); fill-opacity: 1;"/></g><g class="point"><path d="M92.25,121.81V120.07H110.25V121.81Z" style="vector-effect: non-scaling-stroke; opacity: 1; stroke-width: 0px; fill: rgb(248, 156, 116); fill-opacity: 1;"/></g><g class="point"><path d="M92.25,120.07V119.6H110.25V120.07Z" style="vector-effect: non-scaling-stroke; opacity: 1; stroke-width: 0px; fill: rgb(248, 156, 116); fill-opacity: 1;"/></g><g class="point"><path d="M114.75,122.78V122.64H132.75V122.78Z" style="vector-effect: non-scaling-stroke; opacity: 1; stroke-width: 0px; fill: rgb(248, 156, 116); fill-opacity: 1;"/></g><g class="point"><path d="M114.75,122.64V122.25H132.75V122.64Z" style="vector-effect: non-scaling-stroke; opacity: 1; stroke-width: 0px; fill: rgb(248, 156, 116); fill-opacity: 1;"/></g><g class="point"><path d="M114.75,122.25V120.56H132.75V122.25Z" style="vector-effect: non-scaling-stroke; opacity: 1; stroke-width: 0px; fill: rgb(248, 156, 116); fill-opacity: 1;"/></g><g class="point"><path d="M114.75,120.56V119.37H132.75V120.56Z" style="vector-effect: non-scaling-stroke; opacity: 1; stroke-width: 0px; fill: rgb(248, 156, 116); fill-opacity: 1;"/></g><g class="point"><path d="M114.75,119.37V118.6H132.75V119.37Z" style="vector-effect: non-scaling-stroke; opacity: 1; stroke-width: 0px; fill: rgb(248, 156, 116); fill-opacity: 1;"/></g><g class="point"><path d="M137.25,118.34V116.8H155.25V118.34Z" style="vector-effect: non-scaling-stroke; opacity: 1; stroke-width: 0px; fill: rgb(248, 156, 116); fill-opacity: 1;"/></g><g class="point"><path d="M137.25,116.8V116.66H155.25V116.8Z" style="vector-effect: non-scaling-stroke; opacity: 1; stroke-width: 0px; fill: rgb(248, 156, 116); fill-opacity: 1;"/></g><g class="point"><path d="M137.25,116.66V115.01H155.25V116.66Z" style="vector-effect: non-scaling-stroke; opacity: 1; stroke-width: 0px; fill: rgb(248, 156, 116); fill-opacity: 1;"/></g><g class="point"><path d="M137.25,115.01V113.32H155.25V115.01Z" style="vector-effect: non-scaling-stroke; opacity: 1; stroke-width: 0px; fill: rgb(248, 156, 116); fill-opacity: 1;"/></g><g class="point"><path d="M137.25,113.32V111.6H155.25V113.32Z" style="vector-effect: non-scaling-stroke; opacity: 1; stroke-width: 0px; fill: rgb(248, 156, 116); fill-opacity: 1;"/></g><g class="point"><path d="M137.25,111.6V109.85H155.25V111.6Z" style="vector-effect: non-scaling-stroke; opacity: 1; stroke-width: 0px; fill: rgb(248, 156, 116); fill-opacity: 1;"/></g><g class="point"><path d="M137.25,109.85V108.3H155.25V109.85Z" style="vector-effect: non-scaling-stroke; opacity: 1; stroke-width: 0px; fill: rgb(248, 156, 116); fill-opacity: 1;"/></g><g class="point"><path d="M137.25,108.3V108.05H155.25V108.3Z" style="vector-effect: non-scaling-stroke; opacity: 1; stroke-width: 0px; fill: rgb(248, 156, 116); fill-opacity: 1;"/></g><g class="point"><path d="M159.75,121.11V119.58H177.75V121.11Z" style="vector-effect: non-scaling-stroke; opacity: 1; stroke-width: 0px; fill: rgb(248, 156, 116); fill-opacity: 1;"/></g><g class="point"><path d="M159.75,119.58V119.44H177.75V119.58Z" style="vector-effect: non-scaling-stroke; opacity: 1; stroke-width: 0px; fill: rgb(248, 156, 116); fill-opacity: 1;"/></g><g class="point"><path d="M159.75,119.44V119.43H177.75V119.44Z" style="vector-effect: non-scaling-stroke; opacity: 1; stroke-width: 0px; fill: rgb(248, 156, 116); fill-opacity: 1;"/></g><g class="point"><path d="M159.75,119.43V117.74H177.75V119.43Z" style="vector-effect: non-scaling-stroke; opacity: 1; stroke-width: 0px; fill: rgb(248, 156, 116); fill-opacity: 1;"/></g><g class="point"><path d="M159.75,117.74V116.02H177.75V117.74Z" style="vector-effect: non-scaling-stroke; opacity: 1; stroke-width: 0px; fill: rgb(248, 156, 116); fill-opacity: 1;"/></g><g class="point"><path d="M159.75,116.02V114.27H177.75V116.02Z" style="vector-effect: non-scaling-stroke; opacity: 1; stroke-width: 0px; fill: rgb(248, 156, 116); fill-opacity: 1;"/></g><g class="point"><path d="M159.75,114.27V113.47H177.75V114.27Z" style="vector-effect: non-scaling-stroke; opacity: 1; stroke-width: 0px; fill: rgb(248, 156, 116); fill-opacity: 1;"/></g><g class="point"><path d="M159.75,113.47V113.22H177.75V113.47Z" style="vector-effect: non-scaling-stroke; opacity: 1; stroke-width: 0px; fill: rgb(248, 156, 116); fill-opacity: 1;"/></g></g></g><g class="trace bars" style="opacity: 1;"><g class="points"><g class="point"><path d="M2.25,125.34V40.94H20.25V125.34Z" style="vector-effect: non-scaling-stroke; opacity: 1; stroke-width: 0px; fill: rgb(246, 207, 113); fill-opacity: 1;"/></g><g class="point"><path d="M2.25,40.94V20.08H20.25V40.94Z" style="vector-effect: non-scaling-stroke; opacity: 1; stroke-width: 0px; fill: rgb(246, 207, 113); fill-opacity: 1;"/></g><g class="point"><path d="M24.75,125.87V41.47H42.75V125.87Z" style="vector-effect: non-scaling-stroke; opacity: 1; stroke-width: 0px; fill: rgb(246, 207, 113); fill-opacity: 1;"/></g><g class="point"><path d="M24.75,41.47V20.61H42.75V41.47Z" style="vector-effect: non-scaling-stroke; opacity: 1; stroke-width: 0px; fill: rgb(246, 207, 113); fill-opacity: 1;"/></g><g class="point"><path d="M47.25,113.26V28.86H65.25V113.26Z" style="vector-effect: non-scaling-stroke; opacity: 1; stroke-width: 0px; fill: rgb(246, 207, 113); fill-opacity: 1;"/></g><g class="point"><path d="M47.25,28.86V8H65.25V28.86Z" style="vector-effect: non-scaling-stroke; opacity: 1; stroke-width: 0px; fill: rgb(246, 207, 113); fill-opacity: 1;"/></g><g class="point"><path d="M69.75,119.41V35H87.75V119.41Z" style="vector-effect: non-scaling-stroke; opacity: 1; stroke-width: 0px; fill: rgb(246, 207, 113); fill-opacity: 1;"/></g><g class="point"><path d="M69.75,35V14.14H87.75V35Z" style="vector-effect: non-scaling-stroke; opacity: 1; stroke-width: 0px; fill: rgb(246, 207, 113); fill-opacity: 1;"/></g><g class="point"><path d="M92.25,119.6V109.92H110.25V119.6Z" style="vector-effect: non-scaling-stroke; opacity: 1; stroke-width: 0px; fill: rgb(246, 207, 113); fill-opacity: 1;"/></g><g class="point"><path d="M92.25,109.92V45.03H110.25V109.92Z" style="vector-effect: non-scaling-stroke; opacity: 1; stroke-width: 0px; fill: rgb(246, 207, 113); fill-opacity: 1;"/></g><g class="point"><path d="M114.75,118.6V108.92H132.75V118.6Z" style="vector-effect: non-scaling-stroke; opacity: 1; stroke-width: 0px; fill: rgb(246, 207, 113); fill-opacity: 1;"/></g><g class="point"><path d="M114.75,108.92V44.03H132.75V108.92Z" style="vector-effect: non-scaling-stroke; opacity: 1; stroke-width: 0px; fill: rgb(246, 207, 113); fill-opacity: 1;"/></g><g class="point"><path d="M137.25,108.05V98.36H155.25V108.05Z" style="vector-effect: non-scaling-stroke; opacity: 1; stroke-width: 0px; fill: rgb(246, 207, 113); fill-opacity: 1;"/></g><g class="point"><path d="M137.25,98.36V33.47H155.25V98.36Z" style="vector-effect: non-scaling-stroke; opacity: 1; stroke-width: 0px; fill: rgb(246, 207, 113); fill-opacity: 1;"/></g><g class="point"><path d="M159.75,113.22V103.53H177.75V113.22Z" style="vector-effect: non-scaling-stroke; opacity: 1; stroke-width: 0px; fill: rgb(246, 207, 113); fill-opacity: 1;"/></g><g class="point"><path d="M159.75,103.53V38.64H177.75V103.53Z" style="vector-effect: non-scaling-stroke; opacity: 1; stroke-width: 0px; fill: rgb(246, 207, 113); fill-opacity: 1;"/></g></g></g></g></g><g class="overplot"/><path class="xlines-above crisp" d="M0,0" style="fill: none;"/><path class="ylines-above crisp" d="M0,0" style="fill: none;"/><g class="overlines-above"/><g class="xaxislayer-above"/><g class="yaxislayer-above"><g class="ytick"><text text-anchor="end" x="79" y="4.199999999999999" transform="translate(0,220)" style="font-family: Arial; font-size: 12px; fill: rgb(0, 0, 0); fill-opacity: 1; white-space: pre; opacity: 1;">0</text></g><g class="ytick"><text text-anchor="end" x="79" y="4.199999999999999" style="font-family: Arial; font-size: 12px; fill: rgb(0, 0, 0); fill-opacity: 1; white-space: pre; opacity: 1;" transform="translate(0,183.76)">20</text></g><g class="ytick"><text text-anchor="end" x="79" y="4.199999999999999" style="font-family: Arial; font-size: 12px; fill: rgb(0, 0, 0); fill-opacity: 1; white-space: pre; opacity: 1;" transform="translate(0,147.51999999999998)">40</text></g><g class="ytick"><text text-anchor="end" x="79" y="4.199999999999999" style="font-family: Arial; font-size: 12px; fill: rgb(0, 0, 0); fill-opacity: 1; white-space: pre; opacity: 1;" transform="translate(0,111.27000000000001)">60</text></g><g class="ytick"><text text-anchor="end" x="79" y="4.199999999999999" style="font-family: Arial; font-size: 12px; fill: rgb(0, 0, 0); fill-opacity: 1; white-space: pre; opacity: 1;" transform="translate(0,75.03)">80</text></g></g><g class="overaxes-above"/></g></g><g class="polarlayer"/><g class="smithlayer"/><g class="ternarylayer"/><g class="geolayer"/><g class="funnelarealayer"/><g class="pielayer"/><g class="iciclelayer"/><g class="treemaplayer"/><g class="sunburstlayer"/><g class="glimages"/><defs id="topdefs-e0dc7e"><g class="clips"/><clipPath id="legende0dc7e"><rect width="124" height="86" x="0" y="0"/></clipPath></defs><g class="layer-above"><g class="imagelayer"/><g class="shapelayer"/></g><g class="infolayer"><g class="legend" pointer-events="all" transform="translate(263.6,60)"><rect class="bg" shape-rendering="crispEdges" width="124" height="86" x="0" y="0" style="stroke: rgb(68, 68, 68); stroke-opacity: 1; fill: rgb(255, 255, 255); fill-opacity: 1; stroke-width: 0px;"/><g class="scrollbox" transform="" clip-path="url(#legende0dc7e)"><text class="legendtitletext" text-anchor="start" x="2" y="18.2" style="font-family: Arial; font-size: 14px; fill: rgb(0, 0, 0); fill-opacity: 1; white-space: pre;">Metabolite_group</text><g class="groups" transform=""><g class="traces" transform="translate(0,32.7)" style="opacity: 1;"><text class="legendtext" text-anchor="start" x="40" y="4.680000000000001" style="font-family: Arial; font-size: 12px; fill: rgb(0, 0, 0); fill-opacity: 1; white-space: pre;">Amino acids</text><g class="layers" style="opacity: 1;"><g class="legendfill"/><g class="legendlines"/><g class="legendsymbols"><g class="legendpoints"><path class="legendundefined" d="M6,6H-6V-6H6Z" transform="translate(20,0)" style="stroke-width: 0px; fill: rgb(220, 176, 242); fill-opacity: 1;"/></g></g></g><rect class="legendtoggle" x="0" y="-9.5" width="118.71875" height="19" style="fill: rgb(0, 0, 0); fill-opacity: 0;"/></g></g><g class="groups" transform=""><g class="traces" transform="translate(0,51.7)" style="opacity: 1;"><text class="legendtext" text-anchor="start" x="40" y="4.680000000000001" style="font-family: Arial; font-size: 12px; fill: rgb(0, 0, 0); fill-opacity: 1; white-space: pre;">Lipids</text><g class="layers" style="opacity: 1;"><g class="legendfill"/><g class="legendlines"/><g class="legendsymbols"><g class="legendpoints"><path class="legendundefined" d="M6,6H-6V-6H6Z" transform="translate(20,0)" style="stroke-width: 0px; fill: rgb(248, 156, 116); fill-opacity: 1;"/></g></g></g><rect class="legendtoggle" x="0" y="-9.5" width="118.71875" height="19" style="fill: rgb(0, 0, 0); fill-opacity: 0;"/></g></g><g class="groups" transform=""><g class="traces" transform="translate(0,70.7)" style="opacity: 1;"><text class="legendtext" text-anchor="start" x="40" y="4.680000000000001" style="font-family: Arial; font-size: 12px; fill: rgb(0, 0, 0); fill-opacity: 1; white-space: pre;">Carbohydrates</text><g class="layers" style="opacity: 1;"><g class="legendfill"/><g class="legendlines"/><g class="legendsymbols"><g class="legendpoints"><path class="legendundefined" d="M6,6H-6V-6H6Z" transform="translate(20,0)" style="stroke-width: 0px; fill: rgb(246, 207, 113); fill-opacity: 1;"/></g></g></g><rect class="legendtoggle" x="0" y="-9.5" width="118.71875" height="19" style="fill: rgb(0, 0, 0); fill-opacity: 0;"/></g></g></g><rect class="scrollbar" rx="20" ry="3" width="0" height="0" x="0" y="0" style="fill: rgb(128, 139, 164); fill-opacity: 1;"/></g><g class="g-gtitle"/><g class="g-ytitle"/></g></svg>