<svg class="main-svg" xmlns="http://www.w3.org/2000/svg" xmlns:xlink="http://www.w3.org/1999/xlink" width="400" height="300" style="" viewBox="0 0 400 300"><rect x="0" y="0" width="400" height="300" style="fill: rgb(255, 255, 255); fill-opacity: 1;"/><defs id="defs-c1a824"><g class="clips"><clipPath id="clipc1a824xyplot" class="plotclip"><rect width="180" height="160"/></clipPath><clipPath class="axesclip" id="clipc1a824x"><rect x="80" y="0" width="180" height="300"/></clipPath><clipPath class="axesclip" id="clipc1a824y"><rect x="0" y="60" width="400" height="160"/></clipPath><clipPath class="axesclip" id="clipc1a824xy"><rect x="80" y="60" width="180" height="160"/></clipPath></g><g class="gradients"/><g class="patterns"/></defs><g class="bglayer"/><g class="layer-below"><g class="imagelayer"/><g class="shapelayer"/></g><g class="cartesianlayer"><g class="subplot xy"><g class="layer-subplot"><g class="shapelayer"/><g class="imagelayer"/></g><g class="gridlayer"><g class="x"/><g class="y"><path class="ygrid crisp" transform="translate(0,187.04000000000002)" d="M80,0h180" style="stroke: rgb(238, 238, 238); stroke-opacity: 1; stroke-width: 1px;"/><path class="ygrid crisp" transform="translate(0,154.07)" d="M80,0h180" style="stroke: rgb(238, 238, 238); stroke-opacity: 1; stroke-width: 1px;"/><path class="ygrid crisp" transform="translate(0,121.11)" d="M80,0h180" style="stroke: rgb(238, 238, 238); stroke-opacity: 1; stroke-width: 1px;"/><path class="ygrid crisp" transform="translate(0,88.15)" d="M80,0h180" style="stroke: rgb(238, 238, 238); stroke-opacity: 1; stroke-width: 1px;"/></g></g><g class="zerolinelayer"><path class="yzl zl crisp" transform="translate(0,220)" d="M80,0h180" style="stroke: rgb(68, 68, 68); stroke-opacity: 1; stroke-width: 1px;"/></g><path class="xlines-below"/><path class="ylines-below"/><g class="overlines-below"/><g class="xaxislayer-below"/><g class="yaxislayer-below"/><g class="overaxes-below"/><g class="plot" transform="translate(80,60)" clip-path="url(#clipc1a824xyplot)"><g class="barlayer mlayer"><g class="trace bars" style="opacity: 1;"><g class="points"><g class="point"><path d="M2.25,160V83.24H20.25V160Z" style="vector-effect: non-scaling-stroke; opacity: 1; stroke-width: 0px; fill: rgb(246, 207, 113); fill-opacity: 1;"/></g><g class="point"><path d="M2.25,83.24V64.26H20.25V83.24Z" style="vector-effect: non-scaling-stroke; opacity: 1; stroke-width: 0px; fill: rgb(246, 207, 113); fill-opacity: 1;"/></g><g class="point"><path d="M24.75,160V83.24H42.75V160Z" style="vector-effect: non-scaling-stroke; opacity: 1; stroke-width: 0px; fill: rgb(246, 207, 113); fill-opacity: 1;"/></g><g class="point"><path d="M24.75,83.24V64.26H42.75V83.24Z" style="vector-effect: non-scaling-stroke; opacity: 1; stroke-width: 0px; fill: rgb(246, 207, 113); fill-opacity: 1;"/></g><g class="point"><path d="M47.25,160V83.24H65.25V160Z" style="vector-effect: non-scaling-stroke; opacity: 1; stroke-width: 0px; fill: rgb(246, 207, 113); fill-opacity: 1;"/></g><g class="point"><path d="M47.25,83.24V64.26H65.25V83.24Z" style="vector-effect: non-scaling-stroke; opacity: 1; stroke-width: 0px; fill: rgb(246, 207, 113); fill-opacity: 1;"/></g><g class="point"><path d="M69.75,160V83.24H87.75V160Z" style="vector-effect: non-scaling-stroke; opacity: 1; stroke-width: 0px; fill: rgb(246, 207, 113); fill-opacity: 1;"/></g><g class="point"><path d="M69.75,83.24V64.26H87.75V83.24Z" style="vector-effect: non-scaling-stroke; opacity: 1; stroke-width: 0px; fill: rgb(246, 207, 113); fill-opacity: 1;"/></g><g class="point"><path d="M92.25,160V151.19H110.25V160Z" style="vector-effect: non-scaling-stroke; opacity: 1; stroke-width: 0px; fill: rgb(246, 207, 113); fill-opacity: 1;"/></g><g class="point"><path d="M92.25,151.19V92.17H110.25V151.19Z" style="vector-effect: non-scaling-stroke; opacity: 1; stroke-width: 0px; fill: rgb(246, 207, 113); fill-opacity: 1;"/></g><g class="point"><path d="M114.75,160V151.19H132.75V160Z" style="vector-effect: non-scaling-stroke; opacity: 1; stroke-width: 0px; fill: rgb(246, 207, 113); fill-opacity: 1;"/></g><g class="point"><path d="M114.75,151.19V92.17H132.75V151.19Z" style="vector-effect: non-scaling-stroke; opacity: 1; stroke-width: 0px; fill: rgb(246, 207, 113); fill-opacity: 1;"/></g><g class="point"><path d="M137.25,160V151.19H155.25V160Z" style="vector-effect: non-scaling-stroke; opacity: 1; stroke-width: 0px; fill: rgb(246, 207, 113); fill-opacity: 1;"/></g><g class="point"><path d="M137.25,151.19V92.17H155.25V151.19Z" style="vector-effect: non-scaling-stroke; opacity: 1; stroke-width: 0px; fill: rgb(246, 207, 113); fill-opacity: 1;"/></g><g class="point"><path d="M159.75,160V151.19H177.75V160Z" style="vector-effect: non-scaling-stroke; opacity: 1; stroke-width: 0px; fill: rgb(246, 207, 113); fill-opacity: 1;"/></g><g class="point"><path d="M159.75,151.19V92.17H177.75V151.19Z" style="vector-effect: non-scaling-stroke; opacity: 1; stroke-width: 0px; fill: rgb(246, 207, 113); fill-opacity: 1;"/></g></g></g><g class="trace bars" style="opacity: 1;"><g class="points"><g class="point"><path d="M2.25,64.26V62.87H20.25V64.26Z" style="vector-effect: non-scaling-stroke; opacity: 1; stroke-width: 0px; fill: rgb(248, 156, 116); fill-opacity: 1;"/></g><g class="point"><path d="M2.25,62.87V62.74H20.25V62.87Z" style="vector-effect: non-scaling-stroke; opacity: 1; stroke-width: 0px; fill: rgb(248, 156, 116); fill-opacity: 1;"/></g><g class="point"><path d="M2.25,62.74V61.24H20.25V62.74Z" style="vector-effect: non-scaling-stroke; opacity: 1; stroke-width: 0px; fill: rgb(248, 156, 116); fill-opacity: 1;"/></g><g class="point"><path d="M2.25,61.24V59.7H20.25V61.24Z" style="vector-effect: non-scaling-stroke; opacity: 1; stroke-width: 0px; fill: rgb(248, 156, 116); fill-opacity: 1;"/></g><g class="point"><path d="M2.25,59.7V58.13H20.25V59.7Z" style="vector-effect: non-scaling-stroke; opacity: 1; stroke-width: 0px; fill: rgb(248, 156, 116); fill-opacity: 1;"/></g><g class="point"><path d="M2.25,58.13V56.54H20.25V58.13Z" style="vector-effect: non-scaling-stroke; opacity: 1; stroke-width: 0px; fill: rgb(248, 156, 116); fill-opacity: 1;"/></g><g class="point"><path d="M2.25,56.54V54.84H20.25V56.54Z" style="vector-effect: non-scaling-stroke; opacity: 1; stroke-width: 0px; fill: rgb(248, 156, 116); fill-opacity: 1;"/></g><g class="point"><path d="M2.25,54.84V54.61H20.25V54.84Z" style="vector-effect: non-scaling-stroke; opacity: 1; stroke-width: 0px; fill: rgb(248, 156, 116); fill-opacity: 1;"/></g><g class="point"><path d="M24.75,64.26V62.87H42.75V64.26Z" style="vector-effect: non-scaling-stroke; opacity: 1; stroke-width: 0px; fill: rgb(248, 156, 116); fill-opacity: 1;"/></g><g class="point"><path d="M24.75,62.87V62.74H42.75V62.87Z" style="vector-effect: non-scaling-stroke; opacity: 1; stroke-width: 0px; fill: rgb(248, 156, 116); fill-opacity: 1;"/></g><g class="point"><path d="M24.75,62.74V61.24H42.75V62.74Z" style="vector-effect: non-scaling-stroke; opacity: 1; stroke-width: 0px; fill: rgb(248, 156, 116); fill-opacity: 1;"/></g><g class="point"><path d="M24.75,61.24V59.7H42.75V61.24Z" style="vector-effect: non-scaling-stroke; opacity: 1; stroke-width: 0px; fill: rgb(248, 156, 116); fill-opacity: 1;"/></g><g class="point"><path d="M24.75,59.7V58.13H42.75V59.7Z" style="vector-effect: non-scaling-stroke; opacity: 1; stroke-width: 0px; fill: rgb(248, 156, 116); fill-opacity: 1;"/></g><g class="point"><path d="M24.75,58.13V56.54H42.75V58.13Z" style="vector-effect: non-scaling-stroke; opacity: 1; stroke-width: 0px; fill: rgb(248, 156, 116); fill-opacity: 1;"/></g><g class="point"><path d="M24.75,56.54V54.84H42.75V56.54Z" style="vector-effect: non-scaling-stroke; opacity: 1; stroke-width: 0px; fill: rgb(248, 156, 116); fill-opacity: 1;"/></g><g class="point"><path d="M24.75,54.84V54.61H42.75V54.84Z" style="vector-effect: non-scaling-stroke; opacity: 1; stroke-width: 0px; fill: rgb(248, 156, 116); fill-opacity: 1;"/></g><g class="point"><path d="M47.25,64.26V62.87H65.25V64.26Z" style="vector-effect: non-scaling-stroke; opacity: 1; stroke-width: 0px; fill: rgb(248, 156, 116); fill-opacity: 1;"/></g><g class="point"><path d="M47.25,62.87V62.74H65.25V62.87Z" style="vector-effect: non-scaling-stroke; opacity: 1; stroke-width: 0px; fill: rgb(248, 156, 116); fill-opacity: 1;"/></g><g class="point"><path d="M47.25,62.74V61.24H65.25V62.74Z" style="vector-effect: non-scaling-stroke; opacity: 1; stroke-width: 0px; fill: rgb(248, 156, 116); fill-opacity: 1;"/></g><g class="point"><path d="M47.25,61.24V60.08H65.25V61.24Z" style="vector-effect: non-scaling-stroke; opacity: 1; stroke-width: 0px; fill: rgb(248, 156, 116); fill-opacity: 1;"/></g><g class="point"><path d="M47.25,60.08V58.51H65.25V60.08Z" style="vector-effect: non-scaling-stroke; opacity: 1; stroke-width: 0px; fill: rgb(248, 156, 116); fill-opacity: 1;"/></g><g class="point"><path d="M47.25,58.51V56.92H65.25V58.51Z" style="vector-effect: non-scaling-stroke; opacity: 1; stroke-width: 0px; fill: rgb(248, 156, 116); fill-opacity: 1;"/></g><g class="point"><path d="M47.25,56.92V55.22H65.25V56.92Z" style="vector-effect: non-scaling-stroke; opacity: 1; stroke-width: 0px; fill: rgb(248, 156, 116); fill-opacity: 1;"/></g><g class="point"><path d="M47.25,55.22V54.99H65.25V55.22Z" style="vector-effect: non-scaling-stroke; opacity: 1; stroke-width: 0px; fill: rgb(248, 156, 116); fill-opacity: 1;"/></g><g class="point"><path d="M69.75,64.26V62.87H87.75V64.26Z" style="vector-effect: non-scaling-stroke; opacity: 1; stroke-width: 0px; fill: rgb(248, 156, 116); fill-opacity: 1;"/></g><g class="point"><path d="M69.75,62.87V62.74H87.75V62.87Z" style="vector-effect: non-scaling-stroke; opacity: 1; stroke-width: 0px; fill: rgb(248, 156, 116); fill-opacity: 1;"/></g><g class="point"><path d="M69.75,62.74V62.73H87.75V62.74Z" style="vector-effect: non-scaling-stroke; opacity: 1; stroke-width: 0px; fill: rgb(248, 156, 116); fill-opacity: 1;"/></g><g class="point"><path d="M69.75,62.73V61.19H87.75V62.73Z" style="vector-effect: non-scaling-stroke; opacity: 1; stroke-width: 0px; fill: rgb(248, 156, 116); fill-opacity: 1;"/></g><g class="point"><path d="M69.75,61.19V59.63H87.75V61.19Z" style="vector-effect: non-scaling-stroke; opacity: 1; stroke-width: 0px; fill: rgb(248, 156, 116); fill-opacity: 1;"/></g><g class="point"><path d="M69.75,59.63V58.04H87.75V59.63Z" style="vector-effect: non-scaling-stroke; opacity: 1; stroke-width: 0px; fill: rgb(248, 156, 116); fill-opacity: 1;"/></g><g class="point"><path d="M69.75,58.04V57.52H87.75V58.04Z" style="vector-effect: non-scaling-stroke; opacity: 1; stroke-width: 0px; fill: rgb(248, 156, 116); fill-opacity: 1;"/></g><g class="point"><path d="M69.75,57.52V57.29H87.75V57.52Z" style="vector-effect: non-scaling-stroke; opacity: 1; stroke-width: 0px; fill: rgb(248, 156, 116); fill-opacity: 1;"/></g><g class="point"><path d="M92.25,92.17V88.78H110.25V92.17Z" style="vector-effect: non-scaling-stroke; opacity: 1; stroke-width: 0px; fill: rgb(248, 156, 116); fill-opacity: 1;"/></g><g class="point"><path d="M92.25,88.78V88.46H110.25V88.78Z" style="vector-effect: non-scaling-stroke; opacity: 1; stroke-width: 0px; fill: rgb(248, 156, 116); fill-opacity: 1;"/></g><g class="point"><path d="M92.25,88.46V79.51H110.25V88.46Z" style="vector-effect: non-scaling-stroke; opacity: 1; stroke-width: 0px; fill: rgb(248, 156, 116); fill-opacity: 1;"/></g><g class="point"><path d="M92.25,79.51V70.35H110.25V79.51Z" style="vector-effect: non-scaling-stroke; opacity: 1; stroke-width: 0px; fill: rgb(248, 156, 116); fill-opacity: 1;"/></g><g class="point"><path d="M92.25,70.35V61.02H110.25V70.35Z" style="vector-effect: non-scaling-stroke; opacity: 1; stroke-width: 0px; fill: rgb(248, 156, 116); fill-opacity: 1;"/></g><g class="point"><path d="M92.25,61.02V51.56H110.25V61.02Z" style="vector-effect: non-scaling-stroke; opacity: 1; stroke-width: 0px; fill: rgb(248, 156, 116); fill-opacity: 1;"/></g><g class="point"><path d="M92.25,51.56V46.67H110.25V51.56Z" style="vector-effect: non-scaling-stroke; opacity: 1; stroke-width: 0px; fill: rgb(248, 156, 116); fill-opacity: 1;"/></g><g class="point"><path d="M92.25,46.67V45.89H110.25V46.67Z" style="vector-effect: non-scaling-stroke; opacity: 1; stroke-width: 0px; fill: rgb(248, 156, 116); fill-opacity: 1;"/></g><g class="point"><path d="M114.75,92.17V88.78H132.75V92.17Z" style="vector-effect: non-scaling-stroke; opacity: 1; stroke-width: 0px; fill: rgb(248, 156, 116); fill-opacity: 1;"/></g><g class="point"><path d="M114.75,88.78V88.46H132.75V88.78Z" style="vector-effect: non-scaling-stroke; opacity: 1; stroke-width: 0px; fill: rgb(248, 156, 116); fill-opacity: 1;"/></g><g class="point"><path d="M114.75,88.46V79.51H132.75V88.46Z" style="vector-effect: non-scaling-stroke; opacity: 1; stroke-width: 0px; fill: rgb(248, 156, 116); fill-opacity: 1;"/></g><g class="point"><path d="M114.75,79.51V70.35H132.75V79.51Z" style="vector-effect: non-scaling-stroke; opacity: 1; stroke-width: 0px; fill: rgb(248, 156, 116); fill-opacity: 1;"/></g><g class="point"><path d="M114.75,70.35V61.02H132.75V70.35Z" style="vector-effect: non-scaling-stroke; opacity: 1; stroke-width: 0px; fill: rgb(248, 156, 116); fill-opacity: 1;"/></g><g class="point"><path d="M114.75,61.02V51.56H132.75V61.02Z" style="vector-effect: non-scaling-stroke; opacity: 1; stroke-width: 0px; fill: rgb(248, 156, 116); fill-opacity: 1;"/></g><g class="point"><path d="M114.75,51.56V46.67H132.75V51.56Z" style="vector-effect: non-scaling-stroke; opacity: 1; stroke-width: 0px; fill: rgb(248, 156, 116); fill-opacity: 1;"/></g><g class="point"><path d="M114.75,46.67V45.89H132.75V46.67Z" style="vector-effect: non-scaling-stroke; opacity: 1; stroke-width: 0px; fill: rgb(248, 156, 116); fill-opacity: 1;"/></g><g class="point"><path d="M137.25,92.17V88.78H155.25V92.17Z" style="vector-effect: non-scaling-stroke; opacity: 1; stroke-width: 0px; fill: rgb(248, 156, 116); fill-opacity: 1;"/></g><g class="point"><path d="M137.25,88.78V88.46H155.25V88.78Z" style="vector-effect: non-scaling-stroke; opacity: 1; stroke-width: 0px; fill: rgb(248, 156, 116); fill-opacity: 1;"/></g><g class="point"><path d="M137.25,88.46V79.51H155.25V88.46Z" style="vector-effect: non-scaling-stroke; opacity: 1; stroke-width: 0px; fill: rgb(248, 156, 116); fill-opacity: 1;"/></g><g class="point"><path d="M137.25,79.51V70.35H155.25V79.51Z" style="vector-effect: non-scaling-stroke; opacity: 1; stroke-width: 0px; fill: rgb(248, 156, 116); fill-opacity: 1;"/></g><g class="point"><path d="M137.25,70.35V61.02H155.25V70.35Z" style="vector-effect: non-scaling-stroke; opacity: 1; stroke-width: 0px; fill: rgb(248, 156, 116); fill-opacity: 1;"/></g><g class="point"><path d="M137.25,61.02V51.56H155.25V61.02Z" style="vector-effect: non-scaling-stroke; opacity: 1; stroke-width: 0px; fill: rgb(248, 156, 116); fill-opacity: 1;"/></g><g class="point"><path d="M137.25,51.56V46.67H155.25V51.56Z" style="vector-effect: non-scaling-stroke; opacity: 1; stroke-width: 0px; fill: rgb(248, 156, 116); fill-opacity: 1;"/></g><g class="point"><path d="M137.25,46.67V45.89H155.25V46.67Z" style="vector-effect: non-scaling-stroke; opacity: 1; stroke-width: 0px; fill: rgb(248, 156, 116); fill-opacity: 1;"/></g><g class="point"><path d="M159.75,92.17V88.78H177.75V92.17Z" style="vector-effect: non-scaling-stroke; opacity: 1; stroke-width: 0px; fill: rgb(248, 156, 116); fill-opacity: 1;"/></g><g class="point"><path d="M159.75,88.78V88.46H177.75V88.78Z" style="vector-effect: non-scaling-stroke; opacity: 1; stroke-width: 0px; fill: rgb(248, 156, 116); fill-opacity: 1;"/></g><g class="point"><path d="M159.75,88.46V88.41H177.75V88.46Z" style="vector-effect: non-scaling-stroke; opacity: 1; stroke-width: 0px; fill: rgb(248, 156, 116); fill-opacity: 1;"/></g><g class="point"><path d="M159.75,88.41V79.25H177.75V88.41Z" style="vector-effect: non-scaling-stroke; opacity: 1; stroke-width: 0px; fill: rgb(248, 156, 116); fill-opacity: 1;"/></g><g class="point"><path d="M159.75,79.25V69.93H177.75V79.25Z" style="vector-effect: non-scaling-stroke; opacity: 1; stroke-width: 0px; fill: rgb(248, 156, 116); fill-opacity: 1;"/></g><g class="point"><path d="M159.75,69.93V60.47H177.75V69.93Z" style="vector-effect: non-scaling-stroke; opacity: 1; stroke-width: 0px; fill: rgb(248, 156, 116); fill-opacity: 1;"/></g><g class="point"><path d="M159.75,60.47V55.79H177.75V60.47Z" style="vector-effect: non-scaling-stroke; opacity: 1; stroke-width: 0px; fill: rgb(248, 156, 116); fill-opacity: 1;"/></g><g class="point"><path d="M159.75,55.79V55.01H177.75V55.79Z" style="vector-effect: non-scaling-stroke; opacity: 1; stroke-width: 0px; fill: rgb(248, 156, 116); fill-opacity: 1;"/></g></g></g><g class="trace bars" style="opacity: 1;"><g class="points"><g class="point"><path d="M2.25,54.61V53.79H20.25V54.61Z" style="vector-effect: non-scaling-stroke; opacity: 1; stroke-width: 0px; fill: rgb(220, 176, 242); fill-opacity: 1;"/></g><g class="point"><path d="M2.25,53.79V51.97H20.25V53.79Z" style="vector-effect: non-scaling-stroke; opacity: 1; stroke-width: 0px; fill: rgb(220, 176, 242); fill-opacity: 1;"/></g><g class="point"><path d="M2.25,51.97V48.69H20.25V51.97Z" style="vector-effect: non-scaling-stroke; opacity: 1; stroke-width: 0px; fill: rgb(220, 176, 242); fill-opacity: 1;"/></g><g class="point"><path d="M2.25,48.69V46.21H20.25V48.69Z" style="vector-effect: non-scaling-stroke; opacity: 1; stroke-width: 0px; fill: rgb(220, 176, 242); fill-opacity: 1;"/></g><g class="point"><path d="M2.25,46.21V45.5H20.25V46.21Z" style="vector-effect: non-scaling-stroke; opacity: 1; stroke-width: 0px; fill: rgb(220, 176, 242); fill-opacity: 1;"/></g><g class="point"><path d="M2.25,45.5V43.34H20.25V45.5Z" style="vector-effect: non-scaling-stroke; opacity: 1; stroke-width: 0px; fill: rgb(220, 176, 242); fill-opacity: 1;"/></g><g class="point"><path d="M2.25,43.34V42.26H20.25V43.34Z" style="vector-effect: non-scaling-stroke; opacity: 1; stroke-width: 0px; fill: rgb(220, 176, 242); fill-opacity: 1;"/></g><g class="point"><path d="M2.25,42.26V41.75H20.25V42.26Z" style="vector-effect: non-scaling-stroke; opacity: 1; stroke-width: 0px; fill: rgb(220, 176, 242); fill-opacity: 1;"/></g><g class="point"><path d="M2.25,41.75V39.73H20.25V41.75Z" style="vector-effect: non-scaling-stroke; opacity: 1; stroke-width: 0px; fill: rgb(220, 176, 242); fill-opacity: 1;"/></g><g class="point"><path d="M2.25,39.73V38.96H20.25V39.73Z" style="vector-effect: non-scaling-stroke; opacity: 1; stroke-width: 0px; fill: rgb(220, 176, 242); fill-opacity: 1;"/></g><g class="point"><path d="M2.25,38.96V37.97H20.25V38.96Z" style="vector-effect: non-scaling-stroke; opacity: 1; stroke-width: 0px; fill: rgb(220, 176, 242); fill-opacity: 1;"/></g><g class="point"><path d="M2.25,37.97V36.36H20.25V37.97Z" style="vector-effect: non-scaling-stroke; opacity: 1; stroke-width: 0px; fill: rgb(220, 176, 242); fill-opacity: 1;"/></g><g class="point"><path d="M2.25,36.36V35.6H20.25V36.36Z" style="vector-effect: non-scaling-stroke; opacity: 1; stroke-width: 0px; fill: rgb(220, 176, 242); fill-opacity: 1;"/></g><g class="point"><path d="M2.25,35.6V29.84H20.25V35.6Z" style="vector-effect: non-scaling-stroke; opacity: 1; stroke-width: 0px; fill: rgb(220, 176, 242); fill-opacity: 1;"/></g><g class="point"><path d="M2.25,29.84V29.41H20.25V29.84Z" style="vector-effect: non-scaling-stroke; opacity: 1; stroke-width: 0px; fill: rgb(220, 176, 242); fill-opacity: 1;"/></g><g class="point"><path d="M2.25,29.41V25.16H20.25V29.41Z" style="vector-effect: non-scaling-stroke; opacity: 1; stroke-width: 0px; fill: rgb(220, 176, 242); fill-opacity: 1;"/></g><g class="point"><path d="M2.25,25.16V23.84H20.25V25.16Z" style="vector-effect: non-scaling-stroke; opacity: 1; stroke-width: 0px; fill: rgb(220, 176, 242); fill-opacity: 1;"/></g><g class="point"><path d="M2.25,23.84V21.75H20.25V23.84Z" style="vector-effect: non-scaling-stroke; opacity: 1; stroke-width: 0px; fill: rgb(220, 176, 242); fill-opacity: 1;"/></g><g class="point"><path d="M24.75,54.61V53.79H42.75V54.61Z" style="vector-effect: non-scaling-stroke; opacity: 1; stroke-width: 0px; fill: rgb(220, 176, 242); fill-opacity: 1;"/></g><g class="point"><path d="M24.75,53.79V51.97H42.75V53.79Z" style="vector-effect: non-scaling-stroke; opacity: 1; stroke-width: 0px; fill: rgb(220, 176, 242); fill-opacity: 1;"/></g><g class="point"><path d="M24.75,51.97V48.69H42.75V51.97Z" style="vector-effect: non-scaling-stroke; opacity: 1; stroke-width: 0px; fill: rgb(220, 176, 242); fill-opacity: 1;"/></g><g class="point"><path d="M24.75,48.69V46.21H42.75V48.69Z" style="vector-effect: non-scaling-stroke; opacity: 1; stroke-width: 0px; fill: rgb(220, 176, 242); fill-opacity: 1;"/></g><g class="point"><path d="M24.75,46.21V45.5H42.75V46.21Z" style="vector-effect: non-scaling-stroke; opacity: 1; stroke-width: 0px; fill: rgb(220, 176, 242); fill-opacity: 1;"/></g><g class="point"><path d="M24.75,45.5V43.34H42.75V45.5Z" style="vector-effect: non-scaling-stroke; opacity: 1; stroke-width: 0px; fill: rgb(220, 176, 242); fill-opacity: 1;"/></g><g class="point"><path d="M24.75,43.34V42.26H42.75V43.34Z" style="vector-effect: non-scaling-stroke; opacity: 1; stroke-width: 0px; fill: rgb(220, 176, 242); fill-opacity: 1;"/></g><g class="point"><path d="M24.75,42.26V41.75H42.75V42.26Z" style="vector-effect: non-scaling-stroke; opacity: 1; stroke-width: 0px; fill: rgb(220, 176, 242); fill-opacity: 1;"/></g><g class="point"><path d="M24.75,41.75V39.73H42.75V41.75Z" style="vector-effect: non-scaling-stroke; opacity: 1; stroke-width: 0px; fill: rgb(220, 176, 242); fill-opacity: 1;"/></g><g class="point"><path d="M24.75,39.73V38.96H42.75V39.73Z" style="vector-effect: non-scaling-stroke; opacity: 1; stroke-width: 0px; fill: rgb(220, 176, 242); fill-opacity: 1;"/></g><g class="point"><path d="M24.75,38.96V37.97H42.75V38.96Z" style="vector-effect: non-scaling-stroke; opacity: 1; stroke-width: 0px; fill: rgb(220, 176, 242); fill-opacity: 1;"/></g><g class="point"><path d="M24.75,37.97V36.36H42.75V37.97Z" style="vector-effect: non-scaling-stroke; opacity: 1; stroke-width: 0px; fill: rgb(220, 176, 242); fill-opacity: 1;"/></g><g class="point"><path d="M24.75,36.36V35.6H42.75V36.36Z" style="vector-effect: non-scaling-stroke; opacity: 1; stroke-width: 0px; fill: rgb(220, 176, 242); fill-opacity: 1;"/></g><g class="point"><path d="M24.75,35.6V29.84H42.75V35.6Z" style="vector-effect: non-scaling-stroke; opacity: 1; stroke-width: 0px; fill: rgb(220, 176, 242); fill-opacity: 1;"/></g><g class="point"><path d="M24.75,29.84V29.41H42.75V29.84Z" style="vector-effect: non-scaling-stroke; opacity: 1; stroke-width: 0px; fill: rgb(220, 176, 242); fill-opacity: 1;"/></g><g class="point"><path d="M24.75,29.41V25.16H42.75V29.41Z" style="vector-effect: non-scaling-stroke; opacity: 1; stroke-width: 0px; fill: rgb(220, 176, 242); fill-opacity: 1;"/></g><g class="point"><path d="M24.75,25.16V23.84H42.75V25.16Z" style="vector-effect: non-scaling-stroke; opacity: 1; stroke-width: 0px; fill: rgb(220, 176, 242); fill-opacity: 1;"/></g><g class="point"><path d="M24.75,23.84V21.75H42.75V23.84Z" style="vector-effect: non-scaling-stroke; opacity: 1; stroke-width: 0px; fill: rgb(220, 176, 242); fill-opacity: 1;"/></g><g class="point"><path d="M47.25,54.99V54.17H65.25V54.99Z" style="vector-effect: non-scaling-stroke; opacity: 1; stroke-width: 0px; fill: rgb(220, 176, 242); fill-opacity: 1;"/></g><g class="point"><path d="M47.25,54.17V52.36H65.25V54.17Z" style="vector-effect: non-scaling-stroke; opacity: 1; stroke-width: 0px; fill: rgb(220, 176, 242); fill-opacity: 1;"/></g><g class="point"><path d="M47.25,52.36V49.07H65.25V52.36Z" style="vector-effect: non-scaling-stroke; opacity: 1; stroke-width: 0px; fill: rgb(220, 176, 242); fill-opacity: 1;"/></g><g class="point"><path d="M47.25,49.07V46.59H65.25V49.07Z" style="vector-effect: non-scaling-stroke; opacity: 1; stroke-width: 0px; fill: rgb(220, 176, 242); fill-opacity: 1;"/></g><g class="point"><path d="M47.25,46.59V45.88H65.25V46.59Z" style="vector-effect: non-scaling-stroke; opacity: 1; stroke-width: 0px; fill: rgb(220, 176, 242); fill-opacity: 1;"/></g><g class="point"><path d="M47.25,45.88V43.72H65.25V45.88Z" style="vector-effect: non-scaling-stroke; opacity: 1; stroke-width: 0px; fill: rgb(220, 176, 242); fill-opacity: 1;"/></g><g class="point"><path d="M47.25,43.72V42.64H65.25V43.72Z" style="vector-effect: non-scaling-stroke; opacity: 1; stroke-width: 0px; fill: rgb(220, 176, 242); fill-opacity: 1;"/></g><g class="point"><path d="M47.25,42.64V42.14H65.25V42.64Z" style="vector-effect: non-scaling-stroke; opacity: 1; stroke-width: 0px; fill: rgb(220, 176, 242); fill-opacity: 1;"/></g><g class="point"><path d="M47.25,42.14V40.11H65.25V42.14Z" style="vector-effect: non-scaling-stroke; opacity: 1; stroke-width: 0px; fill: rgb(220, 176, 242); fill-opacity: 1;"/></g><g class="point"><path d="M47.25,40.11V39.34H65.25V40.11Z" style="vector-effect: non-scaling-stroke; opacity: 1; stroke-width: 0px; fill: rgb(220, 176, 242); fill-opacity: 1;"/></g><g class="point"><path d="M47.25,39.34V38.35H65.25V39.34Z" style="vector-effect: non-scaling-stroke; opacity: 1; stroke-width: 0px; fill: rgb(220, 176, 242); fill-opacity: 1;"/></g><g class="point"><path d="M47.25,38.35V36.75H65.25V38.35Z" style="vector-effect: non-scaling-stroke; opacity: 1; stroke-width: 0px; fill: rgb(220, 176, 242); fill-opacity: 1;"/></g><g class="point"><path d="M47.25,36.75V35.99H65.25V36.75Z" style="vector-effect: non-scaling-stroke; opacity: 1; stroke-width: 0px; fill: rgb(220, 176, 242); fill-opacity: 1;"/></g><g class="point"><path d="M47.25,35.99V30.22H65.25V35.99Z" style="vector-effect: non-scaling-stroke; opacity: 1; stroke-width: 0px; fill: rgb(220, 176, 242); fill-opacity: 1;"/></g><g class="point"><path d="M47.25,30.22V29.79H65.25V30.22Z" style="vector-effect: non-scaling-stroke; opacity: 1; stroke-width: 0px; fill: rgb(220, 176, 242); fill-opacity: 1;"/></g><g class="point"><path d="M47.25,29.79V25.54H65.25V29.79Z" style="vector-effect: non-scaling-stroke; opacity: 1; stroke-width: 0px; fill: rgb(220, 176, 242); fill-opacity: 1;"/></g><g class="point"><path d="M47.25,25.54V24.22H65.25V25.54Z" style="vector-effect: non-scaling-stroke; opacity: 1; stroke-width: 0px; fill: rgb(220, 176, 242); fill-opacity: 1;"/></g><g class="point"><path d="M47.25,24.22V22.13H65.25V24.22Z" style="vector-effect: non-scaling-stroke; opacity: 1; stroke-width: 0px; fill: rgb(220, 176, 242); fill-opacity: 1;"/></g><g class="point"><path d="M69.75,57.29V56.47H87.75V57.29Z" style="vector-effect: non-scaling-stroke; opacity: 1; stroke-width: 0px; fill: rgb(220, 176, 242); fill-opacity: 1;"/></g><g class="point"><path d="M69.75,56.47V54.65H87.75V56.47Z" style="vector-effect: non-scaling-stroke; opacity: 1; stroke-width: 0px; fill: rgb(220, 176, 242); fill-opacity: 1;"/></g><g class="point"><path d="M69.75,54.65V51.37H87.75V54.65Z" style="vector-effect: non-scaling-stroke; opacity: 1; stroke-width: 0px; fill: rgb(220, 176, 242); fill-opacity: 1;"/></g><g class="point"><path d="M69.75,51.37V49.92H87.75V51.37Z" style="vector-effect: non-scaling-stroke; opacity: 1; stroke-width: 0px; fill: rgb(220, 176, 242); fill-opacity: 1;"/></g><g class="point"><path d="M69.75,49.92V49.21H87.75V49.92Z" style="vector-effect: non-scaling-stroke; opacity: 1; stroke-width: 0px; fill: rgb(220, 176, 242); fill-opacity: 1;"/></g><g class="point"><path d="M69.75,49.21V47.05H87.75V49.21Z" style="vector-effect: non-scaling-stroke; opacity: 1; stroke-width: 0px; fill: rgb(220, 176, 242); fill-opacity: 1;"/></g><g class="point"><path d="M69.75,47.05V45.97H87.75V47.05Z" style="vector-effect: non-scaling-stroke; opacity: 1; stroke-width: 0px; fill: rgb(220, 176, 242); fill-opacity: 1;"/></g><g class="point"><path d="M69.75,45.97V45.47H87.75V45.97Z" style="vector-effect: non-scaling-stroke; opacity: 1; stroke-width: 0px; fill: rgb(220, 176, 242); fill-opacity: 1;"/></g><g class="point"><path d="M69.75,45.47V43.44H87.75V45.47Z" style="vector-effect: non-scaling-stroke; opacity: 1; stroke-width: 0px; fill: rgb(220, 176, 242); fill-opacity: 1;"/></g><g class="point"><path d="M69.75,43.44V42.67H87.75V43.44Z" style="vector-effect: non-scaling-stroke; opacity: 1; stroke-width: 0px; fill: rgb(220, 176, 242); fill-opacity: 1;"/></g><g class="point"><path d="M69.75,42.67V41.68H87.75V42.67Z" style="vector-effect: non-scaling-stroke; opacity: 1; stroke-width: 0px; fill: rgb(220, 176, 242); fill-opacity: 1;"/></g><g class="point"><path d="M69.75,41.68V40.08H87.75V41.68Z" style="vector-effect: non-scaling-stroke; opacity: 1; stroke-width: 0px; fill: rgb(220, 176, 242); fill-opacity: 1;"/></g><g class="point"><path d="M69.75,40.08V34.31H87.75V40.08Z" style="vector-effect: non-scaling-stroke; opacity: 1; stroke-width: 0px; fill: rgb(220, 176, 242); fill-opacity: 1;"/></g><g class="point"><path d="M69.75,34.31V33.88H87.75V34.31Z" style="vector-effect: non-scaling-stroke; opacity: 1; stroke-width: 0px; fill: rgb(220, 176, 242); fill-opacity: 1;"/></g><g class="point"><path d="M69.75,33.88V29.63H87.75V33.88Z" style="vector-effect: non-scaling-stroke; opacity: 1; stroke-width: 0px; fill: rgb(220, 176, 242); fill-opacity: 1;"/></g><g class="point"><path d="M69.75,29.63V28.31H87.75V29.63Z" style="vector-effect: non-scaling-stroke; opacity: 1; stroke-width: 0px; fill: rgb(220, 176, 242); fill-opacity: 1;"/></g><g class="point"><path d="M69.75,28.31V26.22H87.75V28.31Z" style="vector-effect: non-scaling-stroke; opacity: 1; stroke-width: 0px; fill: rgb(220, 176, 242); fill-opacity: 1;"/></g><g class="point"><path d="M92.25,45.89V44.94H110.25V45.89Z" style="vector-effect: non-scaling-stroke; opacity: 1; stroke-width: 0px; fill: rgb(220, 176, 242); fill-opacity: 1;"/></g><g class="point"><path d="M92.25,44.94V42.83H110.25V44.94Z" style="vector-effect: non-scaling-stroke; opacity: 1; stroke-width: 0px; fill: rgb(220, 176, 242); fill-opacity: 1;"/></g><g class="point"><path d="M92.25,42.83V39.03H110.25V42.83Z" style="vector-effect: non-scaling-stroke; opacity: 1; stroke-width: 0px; fill: rgb(220, 176, 242); fill-opacity: 1;"/></g><g class="point"><path d="M92.25,39.03V36.14H110.25V39.03Z" style="vector-effect: non-scaling-stroke; opacity: 1; stroke-width: 0px; fill: rgb(220, 176, 242); fill-opacity: 1;"/></g><g class="point"><path d="M92.25,36.14V34.81H110.25V36.14Z" style="vector-effect: non-scaling-stroke; opacity: 1; stroke-width: 0px; fill: rgb(220, 176, 242); fill-opacity: 1;"/></g><g class="point"><path d="M92.25,34.81V32.3H110.25V34.81Z" style="vector-effect: non-scaling-stroke; opacity: 1; stroke-width: 0px; fill: rgb(220, 176, 242); fill-opacity: 1;"/></g><g class="point"><path d="M92.25,32.3V31.06H110.25V32.3Z" style="vector-effect: non-scaling-stroke; opacity: 1; stroke-width: 0px; fill: rgb(220, 176, 242); fill-opacity: 1;"/></g><g class="point"><path d="M92.25,31.06V30.5H110.25V31.06Z" style="vector-effect: non-scaling-stroke; opacity: 1; stroke-width: 0px; fill: rgb(220, 176, 242); fill-opacity: 1;"/></g><g class="point"><path d="M92.25,30.5V28.15H110.25V30.5Z" style="vector-effect: non-scaling-stroke; opacity: 1; stroke-width: 0px; fill: rgb(220, 176, 242); fill-opacity: 1;"/></g><g class="point"><path d="M92.25,28.15V27.25H110.25V28.15Z" style="vector-effect: non-scaling-stroke; opacity: 1; stroke-width: 0px; fill: rgb(220, 176, 242); fill-opacity: 1;"/></g><g class="point"><path d="M92.25,27.25V26.09H110.25V27.25Z" style="vector-effect: non-scaling-stroke; opacity: 1; stroke-width: 0px; fill: rgb(220, 176, 242); fill-opacity: 1;"/></g><g class="point"><path d="M92.25,26.09V24.23H110.25V26.09Z" style="vector-effect: non-scaling-stroke; opacity: 1; stroke-width: 0px; fill: rgb(220, 176, 242); fill-opacity: 1;"/></g><g class="point"><path d="M92.25,24.23V24.06H110.25V24.23Z" style="vector-effect: non-scaling-stroke; opacity: 1; stroke-width: 0px; fill: rgb(220, 176, 242); fill-opacity: 1;"/></g><g class="point"><path d="M92.25,24.06V17.37H110.25V24.06Z" style="vector-effect: non-scaling-stroke; opacity: 1; stroke-width: 0px; fill: rgb(220, 176, 242); fill-opacity: 1;"/></g><g class="point"><path d="M92.25,17.37V16.87H110.25V17.37Z" style="vector-effect: non-scaling-stroke; opacity: 1; stroke-width: 0px; fill: rgb(220, 176, 242); fill-opacity: 1;"/></g><g class="point"><path d="M92.25,16.87V11.95H110.25V16.87Z" style="vector-effect: non-scaling-stroke; opacity: 1; stroke-width: 0px; fill: rgb(220, 176, 242); fill-opacity: 1;"/></g><g class="point"><path d="M92.25,11.95V10.43H110.25V11.95Z" style="vector-effect: non-scaling-stroke; opacity: 1; stroke-width: 0px; fill: rgb(220, 176, 242); fill-opacity: 1;"/></g><g class="point"><path d="M92.25,10.43V8H110.25V10.43Z" style="vector-effect: non-scaling-stroke; opacity: 1; stroke-width: 0px; fill: rgb(220, 176, 242); fill-opacity: 1;"/></g><g class="point"><path d="M114.75,45.89V44.94H132.75V45.89Z" style="vector-effect: non-scaling-stroke; opacity: 1; stroke-width: 0px; fill: rgb(220, 176, 242); fill-opacity: 1;"/></g><g class="point"><path d="M114.75,44.94V42.83H132.75V44.94Z" style="vector-effect: non-scaling-stroke; opacity: 1; stroke-width: 0px; fill: rgb(220, 176, 242); fill-opacity: 1;"/></g><g class="point"><path d="M114.75,42.83V39.03H132.75V42.83Z" style="vector-effect: non-scaling-stroke; opacity: 1; stroke-width: 0px; fill: rgb(220, 176, 242); fill-opacity: 1;"/></g><g class="point"><path d="M114.75,39.03V36.14H132.75V39.03Z" style="vector-effect: non-scaling-stroke; opacity: 1; stroke-width: 0px; fill: rgb(220, 176, 242); fill-opacity: 1;"/></g><g class="point"><path d="M114.75,36.14V34.81H132.75V36.14Z" style="vector-effect: non-scaling-stroke; opacity: 1; stroke-width: 0px; fill: rgb(220, 176, 242); fill-opacity: 1;"/></g><g class="point"><path d="M114.75,34.81V32.3H132.75V34.81Z" style="vector-effect: non-scaling-stroke; opacity: 1; stroke-width: 0px; fill: rgb(220, 176, 242); fill-opacity: 1;"/></g><g class="point"><path d="M114.75,32.3V31.06H132.75V32.3Z" style="vector-effect: non-scaling-stroke; opacity: 1; stroke-width: 0px; fill: rgb(220, 176, 242); fill-opacity: 1;"/></g><g class="point"><path d="M114.75,31.06V30.5H132.75V31.06Z" style="vector-effect: non-scaling-stroke; opacity: 1; stroke-width: 0px; fill: rgb(220, 176, 242); fill-opacity: 1;"/></g><g class="point"><path d="M114.75,30.5V28.15H132.75V30.5Z" style="vector-effect: non-scaling-stroke; opacity: 1; stroke-width: 0px; fill: rgb(220, 176, 242); fill-opacity: 1;"/></g><g class="point"><path d="M114.75,28.15V27.25H132.75V28.15Z" style="vector-effect: non-scaling-stroke; opacity: 1; stroke-width: 0px; fill: rgb(220, 176, 242); fill-opacity: 1;"/></g><g class="point"><path d="M114.75,27.25V26.09H132.75V27.25Z" style="vector-effect: non-scaling-stroke; opacity: 1; stroke-width: 0px; fill: rgb(220, 176, 242); fill-opacity: 1;"/></g><g class="point"><path d="M114.75,26.09V24.23H132.75V26.09Z" style="vector-effect: non-scaling-stroke; opacity: 1; stroke-width: 0px; fill: rgb(220, 176, 242); fill-opacity: 1;"/></g><g class="point"><path d="M114.75,24.23V24.06H132.75V24.23Z" style="vector-effect: non-scaling-stroke; opacity: 1; stroke-width: 0px; fill: rgb(220, 176, 242); fill-opacity: 1;"/></g><g class="point"><path d="M114.75,24.06V17.37H132.75V24.06Z" style="vector-effect: non-scaling-stroke; opacity: 1; stroke-width: 0px; fill: rgb(220, 176, 242); fill-opacity: 1;"/></g><g class="point"><path d="M114.75,17.37V16.87H132.75V17.37Z" style="vector-effect: non-scaling-stroke; opacity: 1; stroke-width: 0px; fill: rgb(220, 176, 242); fill-opacity: 1;"/></g><g class="point"><path d="M114.75,16.87V11.95H132.75V16.87Z" style="vector-effect: non-scaling-stroke; opacity: 1; stroke-width: 0px; fill: rgb(220, 176, 242); fill-opacity: 1;"/></g><g class="point"><path d="M114.75,11.95V10.43H132.75V11.95Z" style="vector-effect: non-scaling-stroke; opacity: 1; stroke-width: 0px; fill: rgb(220, 176, 242); fill-opacity: 1;"/></g><g class="point"><path d="M114.75,10.43V8H132.75V10.43Z" style="vector-effect: non-scaling-stroke; opacity: 1; stroke-width: 0px; fill: rgb(220, 176, 242); fill-opacity: 1;"/></g><g class="point"><path d="M137.25,45.89V44.94H155.25V45.89Z" style="vector-effect: non-scaling-stroke; opacity: 1; stroke-width: 0px; fill: rgb(220, 176, 242); fill-opacity: 1;"/></g><g class="point"><path d="M137.25,44.94V42.83H155.25V44.94Z" style="vector-effect: non-scaling-stroke; opacity: 1; stroke-width: 0px; fill: rgb(220, 176, 242); fill-opacity: 1;"/></g><g class="point"><path d="M137.25,42.83V39.03H155.25V42.83Z" style="vector-effect: non-scaling-stroke; opacity: 1; stroke-width: 0px; fill: rgb(220, 176, 242); fill-opacity: 1;"/></g><g class="point"><path d="M137.25,39.03V36.14H155.25V39.03Z" style="vector-effect: non-scaling-stroke; opacity: 1; stroke-width: 0px; fill: rgb(220, 176, 242); fill-opacity: 1;"/></g><g class="point"><path d="M137.25,36.14V34.81H155.25V36.14Z" style="vector-effect: non-scaling-stroke; opacity: 1; stroke-width: 0px; fill: rgb(220, 176, 242); fill-opacity: 1;"/></g><g class="point"><path d="M137.25,34.81V32.3H155.25V34.81Z" style="vector-effect: non-scaling-stroke; opacity: 1; stroke-width: 0px; fill: rgb(220, 176, 242); fill-opacity: 1;"/></g><g class="point"><path d="M137.25,32.3V31.06H155.25V32.3Z" style="vector-effect: non-scaling-stroke; opacity: 1; stroke-width: 0px; fill: rgb(220, 176, 242); fill-opacity: 1;"/></g><g class="point"><path d="M137.25,31.06V30.5H155.25V31.06Z" style="vector-effect: non-scaling-stroke; opacity: 1; stroke-width: 0px; fill: rgb(220, 176, 242); fill-opacity: 1;"/></g><g class="point"><path d="M137.25,30.5V28.15H155.25V30.5Z" style="vector-effect: non-scaling-stroke; opacity: 1; stroke-width: 0px; fill: rgb(220, 176, 242); fill-opacity: 1;"/></g><g class="point"><path d="M137.25,28.15V27.25H155.25V28.15Z" style="vector-effect: non-scaling-stroke; opacity: 1; stroke-width: 0px; fill: rgb(220, 176, 242); fill-opacity: 1;"/></g><g class="point"><path d="M137.25,27.25V26.09H155.25V27.25Z" style="vector-effect: non-scaling-stroke; opacity: 1; stroke-width: 0px; fill: rgb(220, 176, 242); fill-opacity: 1;"/></g><g class="point"><path d="M137.25,26.09V24.23H155.25V26.09Z" style="vector-effect: non-scaling-stroke; opacity: 1; stroke-width: 0px; fill: rgb(220, 176, 242); fill-opacity: 1;"/></g><g class="point"><path d="M137.25,24.23V24.06H155.25V24.23Z" style="vector-effect: non-scaling-stroke; opacity: 1; stroke-width: 0px; fill: rgb(220, 176, 242); fill-opacity: 1;"/></g><g class="point"><path d="M137.25,24.06V17.37H155.25V24.06Z" style="vector-effect: non-scaling-stroke; opacity: 1; stroke-width: 0px; fill: rgb(220, 176, 242); fill-opacity: 1;"/></g><g class="point"><path d="M137.25,17.37V16.87H155.25V17.37Z" style="vector-effect: non-scaling-stroke; opacity: 1; stroke-width: 0px; fill: rgb(220, 176, 242); fill-opacity: 1;"/></g><g class="point"><path d="M137.25,16.87V11.95H155.25V16.87Z" style="vector-effect: non-scaling-stroke; opacity: 1; stroke-width: 0px; fill: rgb(220, 176, 242); fill-opacity: 1;"/></g><g class="point"><path d="M137.25,11.95V10.43H155.25V11.95Z" style="vector-effect: non-scaling-stroke; opacity: 1; stroke-width: 0px; fill: rgb(220, 176, 242); fill-opacity: 1;"/></g><g class="point"><path d="M137.25,10.43V8H155.25V10.43Z" style="vector-effect: non-scaling-stroke; opacity: 1; stroke-width: 0px; fill: rgb(220, 176, 242); fill-opacity: 1;"/></g><g class="point"><path d="M159.75,55.01V54.05H177.75V55.01Z" style="vector-effect: non-scaling-stroke; opacity: 1; stroke-width: 0px; fill: rgb(220, 176, 242); fill-opacity: 1;"/></g><g class="point"><path d="M159.75,54.05V51.95H177.75V54.05Z" style="vector-effect: non-scaling-stroke; opacity: 1; stroke-width: 0px; fill: rgb(220, 176, 242); fill-opacity: 1;"/></g><g class="point"><path d="M159.75,51.95V48.14H177.75V51.95Z" style="vector-effect: non-scaling-stroke; opacity: 1; stroke-width: 0px; fill: rgb(220, 176, 242); fill-opacity: 1;"/></g><g class="point"><path d="M159.75,48.14V45.26H177.75V48.14Z" style="vector-effect: non-scaling-stroke; opacity: 1; stroke-width: 0px; fill: rgb(220, 176, 242); fill-opacity: 1;"/></g><g class="point"><path d="M159.75,45.26V43.93H177.75V45.26Z" style="vector-effect: non-scaling-stroke; opacity: 1; stroke-width: 0px; fill: rgb(220, 176, 242); fill-opacity: 1;"/></g><g class="point"><path d="M159.75,43.93V41.42H177.75V43.93Z" style="vector-effect: non-scaling-stroke; opacity: 1; stroke-width: 0px; fill: rgb(220, 176, 242); fill-opacity: 1;"/></g><g class="point"><path d="M159.75,41.42V40.18H177.75V41.42Z" style="vector-effect: non-scaling-stroke; opacity: 1; stroke-width: 0px; fill: rgb(220, 176, 242); fill-opacity: 1;"/></g><g class="point"><path d="M159.75,40.18V39.62H177.75V40.18Z" style="vector-effect: non-scaling-stroke; opacity: 1; stroke-width: 0px; fill: rgb(220, 176, 242); fill-opacity: 1;"/></g><g class="point"><path d="M159.75,39.62V37.27H177.75V39.62Z" style="vector-effect: non-scaling-stroke; opacity: 1; stroke-width: 0px; fill: rgb(220, 176, 242); fill-opacity: 1;"/></g><g class="point"><path d="M159.75,37.27V36.37H177.75V37.27Z" style="vector-effect: non-scaling-stroke; opacity: 1; stroke-width: 0px; fill: rgb(220, 176, 242); fill-opacity: 1;"/></g><g class="point"><path d="M159.75,36.37V35.21H177.75V36.37Z" style="vector-effect: non-scaling-stroke; opacity: 1; stroke-width: 0px; fill: rgb(220, 176, 242); fill-opacity: 1;"/></g><g class="point"><path d="M159.75,35.21V33.35H177.75V35.21Z" style="vector-effect: non-scaling-stroke; opacity: 1; stroke-width: 0px; fill: rgb(220, 176, 242); fill-opacity: 1;"/></g><g class="point"><path d="M159.75,33.35V33.18H177.75V33.35Z" style="vector-effect: non-scaling-stroke; opacity: 1; stroke-width: 0px; fill: rgb(220, 176, 242); fill-opacity: 1;"/></g><g class="point"><path d="M159.75,33.18V26.49H177.75V33.18Z" style="vector-effect: non-scaling-stroke; opacity: 1; stroke-width: 0px; fill: rgb(220, 176, 242); fill-opacity: 1;"/></g><g class="point"><path d="M159.75,26.49V25.99H177.75V26.49Z" style="vector-effect: non-scaling-stroke; opacity: 1; stroke-width: 0px; fill: rgb(220, 176, 242); fill-opacity: 1;"/></g><g class="point"><path d="M159.75,25.99V21.06H177.75V25.99Z" style="vector-effect: non-scaling-stroke; opacity: 1; stroke-width: 0px; fill: rgb(220, 176, 242); fill-opacity: 1;"/></g><g class="point"><path d="M159.75,21.06V19.55H177.75V21.06Z" style="vector-effect: non-scaling-stroke; opacity: 1; stroke-width: 0px; fill: rgb(220, 176, 242); fill-opacity: 1;"/></g><g class="point"><path d="M159.75,19.55V17.12H177.75V19.55Z" style="vector-effect: non-scaling-stroke; opacity: 1; stroke-width: 0px; fill: rgb(220, 176, 242); fill-opacity: 1;"/></g></g></g></g></g><g class="overplot"/><path class="xlines-above crisp" d="M0,0" style="fill: none;"/><path class="ylines-above crisp" d="M0,0" style="fill: none;"/><g class="overlines-above"/><g class="xaxislayer-above"/><g class="yaxislayer-above"><g class="ytick"><text text-anchor="end" x="79" y="4.199999999999999" transform="translate(0,220)" style="font-family: Arial; font-size: 12px; fill: rgb(0, 0, 0); fill-opacity: 1; white-space: pre; opacity: 1;">0</text></g><g class="ytick"><text text-anchor="end" x="79" y="4.199999999999999" style="font-family: Arial; font-size: 12px; fill: rgb(0, 0, 0); fill-opacity: 1; white-space: pre; opacity: 1;" transform="translate(0,187.04000000000002)">20</text></g><g class="ytick"><text text-anchor="end" x="79" y="4.199999999999999" style="font-family: Arial; font-size: 12px; fill: rgb(0, 0, 0); fill-opacity: 1; white-space: pre; opacity: 1;" transform="translate(0,154.07)">40</text></g><g class="ytick"><text text-anchor="end" x="79" y="4.199999999999999" style="font-family: Arial; font-size: 12px; fill: rgb(0, 0, 0); fill-opacity: 1; white-space: pre; opacity: 1;" transform="translate(0,121.11)">60</text></g><g class="ytick"><text text-anchor="end" x="79" y="4.199999999999999" style="font-family: Arial; font-size: 12px; fill: rgb(0, 0, 0); fill-opacity: 1; white-space: pre; opacity: 1;" transform="translate(0,88.15)">80</text></g></g><g class="overaxes-above"/></g></g><g class="polarlayer"/><g class="smithlayer"/><g class="ternarylayer"/><g class="geolayer"/><g class="funnelarealayer"/><g class="pielayer"/><g class="iciclelayer"/><g class="treemaplayer"/><g class="sunburstlayer"/><g class="glimages"/><defs id="topdefs-c1a824"><g class="clips"/><clipPath id="legendc1a824"><rect width="124" height="86" x="0" y="0"/></clipPath></defs><g class="layer-above"><g class="imagelayer"/><g class="shapelayer"/></g><g class="infolayer"><g class="legend" pointer-events="all" transform="translate(263.6,60)"><rect class="bg" shape-rendering="crispEdges" width="124" height="86" x="0" y="0" style="stroke: rgb(68, 68, 68); stroke-opacity: 1; fill: rgb(255, 255, 255); fill-opacity: 1; stroke-width: 0px;"/><g class="scrollbox" transform="" clip-path="url(#legendc1a824)"><text class="legendtitletext" text-anchor="start" x="2" y="18.2" style="font-family: Arial; font-size: 14px; fill: rgb(0, 0, 0); fill-opacity: 1; white-space: pre;">Metabolite_group</text><g class="groups" transform=""><g class="traces" transform="translate(0,32.7)" style="opacity: 1;"><text class="legendtext" text-anchor="start" x="40" y="4.680000000000001" style="font-family: Arial; font-size: 12px; fill: rgb(0, 0, 0); fill-opacity: 1; white-space: pre;">Carbohydrates</text><g class="layers" style="opacity: 1;"><g class="legendfill"/><g class="legendlines"/><g class="legendsymbols"><g class="legendpoints"><path class="legendundefined" d="M6,6H-6V-6H6Z" transform="translate(20,0)" style="stroke-width: 0px; fill: rgb(246, 207, 113); fill-opacity: 1;"/></g></g></g><rect class="legendtoggle" x="0" y="-9.5" width="118.71875" height="19" style="fill: rgb(0, 0, 0); fill-opacity: 0;"/></g></g><g class="groups" transform=""><g class="traces" transform="translate(0,51.7)" style="opacity: 1;"><text class="legendtext" text-anchor="start" x="40" y="4.680000000000001" style="font-family: Arial; font-size: 12px; fill: rgb(0, 0, 0); fill-opacity: 1; white-space: pre;">Lipids</text><g class="layers" style="opacity: 1;"><g class="legendfill"/><g class="legendlines"/><g class="legendsymbols"><g class="legendpoints"><path class="legendundefined" d="M6,6H-6V-6H6Z" transform="translate(20,0)" style="stroke-width: 0px; fill: rgb(248, 156, 116); fill-opacity: 1;"/></g></g></g><rect class="legendtoggle" x="0" y="-9.5" width="118.71875" height="19" style="fill: rgb(0, 0, 0); fill-opacity: 0;"/></g></g><g class="groups" transform=""><g class="traces" transform="translate(0,70.7)" style="opacity: 1;"><text class="legendtext" text-anchor="start" x="40" y="4.680000000000001" style="font-family: Arial; font-size: 12px; fill: rgb(0, 0, 0); fill-opacity: 1; white-space: pre;">Amino acids</text><g class="layers" style="opacity: 1;"><g class="legendfill"/><g class="legendlines"/><g class="legendsymbols"><g class="legendpoints"><path class="legendundefined" d="M6,6H-6V-6H6Z" transform="translate(20,0)" style="stroke-width: 0px; fill: rgb(220, 176, 242); fill-opacity: 1;"/></g></g></g><rect class="legendtoggle" x="0" y="-9.5" width="118.71875" height="19" style="fill: rgb(0, 0, 0); fill-opacity: 0;"/></g></g></g><rect class="scrollbar" rx="20" ry="3" width="0" height="0" x="0" y="0" style="fill: rgb(128, 139, 164); fill-opacity: 1;"/></g><g class="g-gtitle"/><g class="g-ytitle"/></g></svg>